<svg id="Layer_1" data-name="Layer 1" xmlns="http://www.w3.org/2000/svg" viewBox="0 0 612 792"><defs><style>.cls-1,.cls-17,.cls-19,.cls-27{fill:#fff;}.cls-17,.cls-2{font-size:9px;}.cls-19,.cls-2{font-family:Quicksand-Regular, Quicksand;}.cls-3{letter-spacing:-0.02em;}.cls-4{letter-spacing:-0.03em;}.cls-5{letter-spacing:-0.02em;}.cls-6{letter-spacing:-0.02em;}.cls-7{letter-spacing:0em;}.cls-8{letter-spacing:-0.02em;}.cls-9{letter-spacing:-0.02em;}.cls-10{letter-spacing:-0.02em;}.cls-11{letter-spacing:-0.03em;}.cls-12{letter-spacing:-0.04em;}.cls-13{letter-spacing:-0.01em;}.cls-14{letter-spacing:-0.02em;}.cls-15{letter-spacing:-0.02em;}.cls-16{letter-spacing:0.04em;}.cls-17{font-family:Quicksand-Bold, Quicksand;font-weight:700;}.cls-18{letter-spacing:0.01em;}.cls-19{font-size:26px;}.cls-20{letter-spacing:-0.05em;}.cls-21{letter-spacing:0em;}.cls-22,.cls-23,.cls-26{fill:#404040;}.cls-22,.cls-24{letter-spacing:-0.01em;}.cls-23,.cls-25{letter-spacing:-0.09em;}.cls-27{stroke:#404040;stroke-linecap:round;stroke-width:0.25px;}</style></defs><title>Artboard 1@3x</title><rect width="612" height="792"/><path class="cls-1" d="M120.71,477.46c4.44-1,8.87-2.08,13.32-3a321.94,321.94,0,0,1,43.14-6.15,344.62,344.62,0,0,1,39.29-.6c3.59.14,7.2-.22,10.8-.35,10.83-.39,21.67-.81,32.5-1.17,11.42-.38,22.84-.7,34.25-1,5.39-1.12,9.46,3.09,10.07,9,.21,2,0,4.1,0,6.16,0,2.87,0,5.75.18,8.62.12,2.2.1,4.32-1.19,6.23a1.47,1.47,0,0,1-1.51.74c-2.8-.16-5.61-.2-8.42-.26-3.67-.08-7.34-.05-11-.24-2-.1-3.92-.67-5.9-.81-2.49-.18-5-.14-7.5-.18a1.44,1.44,0,0,0-.63.27,1,1,0,0,0-.3.28c-1.79,2.43-4.19,2.86-7.1,2.7-8.53-.48-17.07-.62-25.6-1a269.35,269.35,0,0,1-43.23-5.45c-13.69-2.84-27.37-5.77-41.1-8.41-9.66-1.86-19.4-3.29-29.1-4.92-.3-.05-.6-.12-.9-.18Z"/><path class="cls-1" d="M311.23,410.4c-2.4.11-4.62.24-6.84.32a439.33,439.33,0,0,1-49.16-.93c-11.66-.91-23.31-1.93-35-2.86-6.8-.54-13.62-.91-20.42-1.53a179.17,179.17,0,0,1-68.07-20.22,4.39,4.39,0,0,1-.44-.26s-.07-.11-.13-.22c2.57.35,5.1.71,7.63,1a227.94,227.94,0,0,0,37.9,1.48c13.16-.55,26.13-2.59,39.06-4.93a255.08,255.08,0,0,1,36.39-3.85c12.25-.44,24.49-.48,36.74,0,7.26.31,14.52.77,21.78,1.31a6.1,6.1,0,0,1,3,1.58,7.27,7.27,0,0,1,2.52,5.36c.23,3.9.28,7.81.41,11.72.06,1.76-.91,2.13-2.2,2.66a4.89,4.89,0,0,0-1.57,1c-.8.8-1.48,1.71-2.22,2.57a3.1,3.1,0,0,0-.46,3.71C310.49,409,310.81,409.6,311.23,410.4Z"/><path class="cls-1" d="M138.94,509.77c1.38.22,2.75.45,4.13.65a87.37,87.37,0,0,0,37-2.76c6.59-1.9,13.16-3.86,19.81-5.5a100.31,100.31,0,0,1,22.82-2.84q37-.46,73.9.25l9.16.18a5.28,5.28,0,0,1,4.8,6.31,16.78,16.78,0,0,1-1.28,4.32,14.26,14.26,0,0,0-.79,9.74,21.14,21.14,0,0,1,.67,4.46,5.29,5.29,0,0,1-4.8,5.8,25,25,0,0,1-3.79.26,371.34,371.34,0,0,1-40.08-1.87c-12.87-1.29-25.75-2.35-38.68-3a292.23,292.23,0,0,1-53.15-7.16,282.26,282.26,0,0,1-28.54-8.25c-.41-.14-.81-.3-1.21-.45Z"/><path class="cls-1" d="M128.33,271.32c3-.73,6-1.48,9-2.17a294.77,294.77,0,0,1,48.52-7c9.94-.6,19.88-.56,29.84-.3,4.52.12,9-.32,13.57-.4q22.69-.44,45.38-.79c4.42-.06,8.85.08,13.28.19a9.64,9.64,0,0,1,2.83.62c-2,1.52-4.69,2.13-5.71,4.61.55.33,1.23.67,1.84,1.1a.64.64,0,0,1,0,1.12c-.67.58-.53,1.18,0,1.87a10,10,0,0,0,1.26-.19,8.18,8.18,0,0,1,6.08.71,11.49,11.49,0,0,0,4.45,1.41c.54,0,.82.25.81.81,0,3.19.14,6.39-.18,9.55a7.91,7.91,0,0,1-7.67,7.26,358.16,358.16,0,0,1-46.17.8c-8.42-.43-16.84-1.1-25.23-1.93a256.69,256.69,0,0,1-26.27-4.38c-16.22-3.31-32.44-6.63-48.68-9.85-5.61-1.11-11.28-1.94-16.93-2.89Z"/><path class="cls-1" d="M163.16,364.78a197.26,197.26,0,0,1,22.55-8.32,248,248,0,0,1,37.3-7.86,274.08,274.08,0,0,1,31.77-2.68,4.26,4.26,0,0,1,2.58.74c1.66,1.1,3.32,2.13,4.31,4,.57,1.07,2.74,1.51,3.86,1.13a13.22,13.22,0,0,1,3.76-1,10.64,10.64,0,0,0,6.88-2.85,7.94,7.94,0,0,1,6-1.84c6.93.24,13.86.3,20.79.45a7.49,7.49,0,0,1,6.33,3.64,11.84,11.84,0,0,1,2,5.79,62.64,62.64,0,0,1-.51,15.38,14.09,14.09,0,0,1-.35,1.39c-.63,2.22-2,3.9-5,3.91-8.75,0-17.49.48-26.24.54-13.7.09-27.35-.86-41-2-11-.92-22.1-1.67-33.15-2.35-10.32-.64-20.61-1.44-30.59-4.32-3.49-1-6.9-2.25-10.35-3.4C163.8,365.09,163.56,365,163.16,364.78Z"/><path class="cls-1" d="M105.28,317.77l2.33-.67c26.82-7.39,53.91-13.6,81.32-18.33,10.44-1.8,20.92-3.36,31.41-4.82a186.12,186.12,0,0,1,24-1.29c9.6-.08,19.21-.1,28.81-.3,7.47-.16,14.94-.68,22.42-.84A82.75,82.75,0,0,1,314.85,293c7.5,1.61,13.24,5.62,16.8,12.52.08.15.14.31.26.57-.28.17-.55.35-.84.51a81.91,81.91,0,0,1-28.14,9c-11.33,1.6-22.72,1.43-34.11,1.13-8.61-.23-17.22-.45-25.81-1-8.86-.53-17.73-1.23-26.55-2.18-16.89-1.82-33.79-3.31-50.81-2.93a309.76,309.76,0,0,0-59.46,7.06l-.88.16Z"/><path class="cls-1" d="M154.31,453.4a8.05,8.05,0,0,1,.87-.11,201.4,201.4,0,0,0,55.65-9.67,138.87,138.87,0,0,1,21.86-5.33,89.75,89.75,0,0,1,18.69-.44c9.67.63,19.34.53,29,.24,3.5-.11,7-.11,10.5-.12a2.44,2.44,0,0,1,1.28.46c.59.41,1.06,1,1.66,1.37a2,2,0,0,0,1.27.29c2.89-.47,5.76-1.15,8.67-1.46a14,14,0,0,1,4.36.59,44.9,44.9,0,0,1,26.45,16.6c.29.37.56.76,1,1.33-2.85.69-5.51,1.56-8.24,2-6.17.89-12.36,1.66-18.57,2.27-8.46.83-16.94,1.5-25.42,2.18a331.62,331.62,0,0,1-47.29.81,318.26,318.26,0,0,1-34.15-4.48c-12.3-2.13-24.64-4-37.06-5.28l-10.5-1.1Z"/><path class="cls-1" d="M166,251c1.24-1.3,2.41-2.68,3.73-3.89a29.84,29.84,0,0,1,17.85-7.6c4.85-.46,9.73-.55,14.57-1.05,3.95-.41,7.87-1.12,11.78-1.82a2.71,2.71,0,0,1,2.73.53,1.79,1.79,0,0,0,2.75.07,4.53,4.53,0,0,1,2-.89,4.86,4.86,0,0,0,3.17-1.87,3.48,3.48,0,0,1,2.29-1.21,289,289,0,0,1,59.4-4.43c5.89.17,11.78.62,17.67,1a5.33,5.33,0,0,1,4.87,7.1A19.26,19.26,0,0,1,307.5,240c-.55,1.1-1.21,2.15-1.77,3.25a7.38,7.38,0,0,0-.44,6c.28.81.55,1.62.79,2.44,1.23,4.21-1.18,7.9-5.57,8.33a20.48,20.48,0,0,1-4.09-.2,205.52,205.52,0,0,0-31.76-.53A150.21,150.21,0,0,1,209,252.16a108.83,108.83,0,0,0-16.82-4.3c-8.79-1.43-17.29-.68-25.41,3.17a5.69,5.69,0,0,1-.54.19Z"/><path class="cls-1" d="M157.4,342l6.53-2.08c18.9-6,38-11.39,57.25-15.94,7.19-1.7,14.55-2.74,21.89-3.75a248.21,248.21,0,0,1,41.38-2.06c5.72.18,11.44.62,17.16,1a3.9,3.9,0,0,1,3.66,3,20.28,20.28,0,0,1,.76,4.54,51.52,51.52,0,0,0,1.36,9.24c1.1,4.7-1.5,7.91-6.36,8.12-15.3.65-30.6.81-45.89.12-11.85-.53-23.7-1.34-35.54-2.16-12.42-.87-24.8-2.33-37.28-2.08a174.86,174.86,0,0,0-24.48,2.17c-.13,0-.27,0-.4,0Z"/><path class="cls-1" d="M167.15,434.46c.46-.41.72-.67,1-.9a91.58,91.58,0,0,1,43.26-20.3c11.61-2.11,23.32-2.4,35.06-2.16,10.8.23,21.6.64,32.4.92a6.43,6.43,0,0,1,4,1.27,11.23,11.23,0,0,0,2,1.27,6.43,6.43,0,0,0,1.6.38c.32.06.78,0,1,.13a2.84,2.84,0,0,0,2.4.62,12.9,12.9,0,0,1,6.51,1,5.72,5.72,0,0,0,1.65.17,10,10,0,0,1,0,2.79c-.93,3.17-.8,6.35-.66,9.59a11.28,11.28,0,0,1-.72,4.4,4.36,4.36,0,0,1-4.24,2.86c-12.65.51-25.31.61-38,.21-12.21-.39-24.38-1.26-36.54-2.42-9.76-.93-19.51-2.11-29.34-2a120.69,120.69,0,0,0-20.65,2.05C167.71,434.41,167.57,434.42,167.15,434.46Z"/><path class="cls-1" d="M379.43,218.74c0-3.88,0-7.7,0-11.57a6.85,6.85,0,0,1,1.31-4.35A4.41,4.41,0,0,1,384,201c9.66-.88,19,.71,28.15,3.72a5,5,0,0,1,3.22,3.36A31.91,31.91,0,0,1,413.42,235c-.16.3-.34.6-.49.9a3.2,3.2,0,0,1-3.06,1.88,240.3,240.3,0,0,1-24.15-1c-4.13-.39-6.29-2.47-6.29-6.62"/><path class="cls-1" d="M384.29,517.77a4.48,4.48,0,0,1-4.59-2.63,8.93,8.93,0,0,1-.84-3.45c-.07-6.65,0-13.31,0-20,0-3.89,1.88-6.07,5.74-6.61a150.54,150.54,0,0,1,24.51-1.47,3.25,3.25,0,0,1,3,1.69,33.09,33.09,0,0,1,4.57,18.2A30.57,30.57,0,0,1,414.47,514a6.53,6.53,0,0,1-1.62,2.32,3.34,3.34,0,0,1-2,.73c-3.74.07-7.48,0-11.21,0"/><path class="cls-1" d="M384.48,271.63c-3.83-.44-5.64-3-5.64-6.83,0-6.65,0-13.31,0-20a6.74,6.74,0,0,1,1.52-4.48,4.22,4.22,0,0,1,3.71-1.63,247,247,0,0,0,26.32.71,3.45,3.45,0,0,1,3.57,2.08A32.13,32.13,0,0,1,412,271.24a3,3,0,0,1-2.8,1.61c-2.26,0-6.81-.09-6.81-.09"/><path class="cls-1" d="M397.37,482.16c-4.28.21-8.57.32-12.85.67a5.16,5.16,0,0,1-5.68-5.37c-.08-6.45,0-12.9,0-19.35a4,4,0,0,1,2.94-4,18.92,18.92,0,0,1,4.83-.83,180.4,180.4,0,0,1,24.93,1.63,3.94,3.94,0,0,1,3.27,3.18,52.82,52.82,0,0,1,1.75,8.42,28.18,28.18,0,0,1-1.5,12.06,4.26,4.26,0,0,1-4.41,3.26C406.22,481.92,401.8,482,397.37,482.16Z"/><path class="cls-1" d="M397.53,274.36c4.42.11,8.85.29,13.27.31a4,4,0,0,1,4.07,2.86,30.46,30.46,0,0,1-.14,21.16,4.44,4.44,0,0,1-4,3.06,191.3,191.3,0,0,1-24.63,1.5,16.16,16.16,0,0,1-4.61-.92,4,4,0,0,1-2.7-4q0-9.57,0-19.14c0-2.73,1.86-5.82,5.76-5.51C388.89,274,393.21,274.14,397.53,274.36Z"/><path class="cls-1" d="M366.07,320.19c4.7-4.81,9.32-9.54,14-14.25a5.47,5.47,0,0,1,4.51-1.51c4.45.26,8.91.24,13.36.55,4.61.33,9.21.89,13.81,1.4a3.94,3.94,0,0,1,3.29,2.49,17.1,17.1,0,0,1-.25,14.73,4.42,4.42,0,0,1-3.53,2.64,128.56,128.56,0,0,1-25.32,1.62,32.06,32.06,0,0,1-19.09-7C366.63,320.7,366.45,320.53,366.07,320.19Z"/><path class="cls-1" d="M366.16,436.22a27.58,27.58,0,0,1,9-5.27,39.44,39.44,0,0,1,14-2.42,173.29,173.29,0,0,1,22.23,1.75,4.23,4.23,0,0,1,3.31,2.47,17,17,0,0,1,.27,15,4,4,0,0,1-3.37,2.4A200.88,200.88,0,0,1,387,452q-1.59,0-3.19.1a5.21,5.21,0,0,1-4-1.78c-2.14-2.12-4.28-4.25-6.38-6.42C371,441.39,368.6,438.82,366.16,436.22Z"/><path class="cls-1" d="M378.81,341.15c0-2.5,0-5,0-7.51s2-4.3,4.79-4.33a134.64,134.64,0,0,1,27.41,2.4,5.4,5.4,0,0,1,4.49,3.82,16.15,16.15,0,0,1-.64,12.79,4.73,4.73,0,0,1-3.83,2.87,156.59,156.59,0,0,1-25.12,1.63,19.41,19.41,0,0,1-4.45-.73c-1.93-.5-2.65-1.65-2.62-3.62,0-2.43,0-4.87,0-7.31Z"/><path class="cls-1" d="M378.82,415.28c0-2.54,0-5.08,0-7.61a3,3,0,0,1,2.33-3.12,21.44,21.44,0,0,1,5-.84,148.51,148.51,0,0,1,25.52,1.75,4,4,0,0,1,2.94,2.37,15.81,15.81,0,0,1,.26,14.46,4.22,4.22,0,0,1-3.2,2.34,124.34,124.34,0,0,1-26.57,2.56,15.65,15.65,0,0,1-2.76-.15,4.17,4.17,0,0,1-3.57-4.55c0-.17,0-.34,0-.51q0-3.34,0-6.69Z"/><path class="cls-1" d="M378.81,365.91c0-2.5,0-5,0-7.51s2-4.34,4.73-4.38a132.77,132.77,0,0,1,27.72,2.45,5.13,5.13,0,0,1,4.16,3.52,16.14,16.14,0,0,1-.52,13,4.79,4.79,0,0,1-3.9,2.93,157.43,157.43,0,0,1-25.12,1.62,19.17,19.17,0,0,1-4.35-.72c-2-.51-2.7-1.64-2.68-3.69,0-2.4,0-4.8,0-7.2Z"/><path class="cls-1" d="M378.84,390.59c0-2.44,0-4.87,0-7.31,0-1.86.67-3,2.49-3.51a21.31,21.31,0,0,1,4.86-.77,149.22,149.22,0,0,1,25.52,1.74A3.94,3.94,0,0,1,414.6,383a15.74,15.74,0,0,1,.28,14.64,4.16,4.16,0,0,1-3.14,2.26,118.23,118.23,0,0,1-19.27,2.41c-2.91.12-5.83.12-8.74.16s-5.24-2.08-4.93-5a67.27,67.27,0,0,0,0-6.89Z"/><path class="cls-1" d="M398.25,532.34a45.93,45.93,0,0,0-18.75,5.05c0-.5,0-.9,0-1.29.05-3.29.15-6.58.16-9.87,0-3.73,1.53-5.74,5.21-6.3,2.43-.37,4.91-.42,7.37-.6,1.67-.12,3.35-.17,5-.3.6,0,.91.12.95.74a14.1,14.1,0,0,1,.12,2.45c-.3,2.4-.16,4.87-1.21,7.15C396.61,530.51,397,531.49,398.25,532.34Z"/><path class="cls-1" d="M399.17,519.19c2.12,0,4.49,0,6.85,0,1.37,0,2.74,0,4.12.08a3,3,0,0,1,2.58,1.44,30.29,30.29,0,0,1,4.74,16.17c0,.31,0,.61,0,1.05l-.94-.32c-4.76-1.74-9.52-3.5-14.3-5.19a16,16,0,0,0-2.91-.55c-1.1-.17-1.48-.6-1.39-1.7,0-.1,0-.21,0-.31.41-2.41.87-4.82,1.2-7.25A26.05,26.05,0,0,0,399.17,519.19Z"/><path class="cls-1" d="M404.25,553.08A48.08,48.08,0,0,1,400.42,542c-.42-2.36-.5-2.36,1.65-3.48.64-.33,1.32-.57,2-.87,1.36-.62,2.71-1.27,4.08-1.88a1.59,1.59,0,0,1,1-.22c2.77,1.08,5.52,2.22,8.41,3.39l-1.71,9.73c-1-.59-1.9-1.13-2.81-1.61-.58-.3-1-.11-1.55.33-2,1.73-4.14,3.38-6.23,5.05A11.36,11.36,0,0,1,404.25,553.08Z"/><path class="cls-1" d="M385,540.24a11.17,11.17,0,0,1,1.71-1.9,4.86,4.86,0,0,0,2-2.86,1.4,1.4,0,0,1,1.25-1.15c3.55-.53,7.1-1.08,10.65-1.6a2.57,2.57,0,0,1,1.19.19c2,.72,3.89,1.48,5.91,2.26a7.29,7.29,0,0,1-1.09.68c-2.24.94-4.51,1.81-6.73,2.78-1.94.85-3.82,1.81-5.73,2.73a1.68,1.68,0,0,0-1,1.66c-.08,2.32-.26,4.64-.39,7l-.26.13Z"/><path class="cls-1" d="M399.49,541.77c.57,1.94,1,3.82,1.67,5.6.92,2.46,2,4.86,3.09,7.25.33.72.2,1-.35,1.61-2.58,2.68-6,2.83-9.54,3.38-.25-2.4-.59-4.7-.68-7a61.71,61.71,0,0,1,.2-6.46,1.94,1.94,0,0,1,.75-1.29C396.19,543.79,397.8,542.83,399.49,541.77Z"/><path class="cls-1" d="M386.8,566a7.88,7.88,0,0,1,.25-.94,8.71,8.71,0,0,0,.52-5,13.37,13.37,0,0,1,.2-2.64c0-1.46,0-2.93,0-4.39l.3-.16a6.77,6.77,0,0,1,1.29,1.82,5.6,5.6,0,0,0,2.28,2.8,5.9,5.9,0,0,1,2,3.81c.25,1.51.34,3,.51,4.72Z"/><path class="cls-1" d="M402,572.58c1.75-.88,3.49-1.82,5.27-2.63s3.72-1.47,5.09-3.13a4.94,4.94,0,0,1,2.47-1.13c.86-.23,2.41,1.81,2.09,2.65a4.3,4.3,0,0,1-3.12,2.89,51.31,51.31,0,0,1-11.16,1.66,5.46,5.46,0,0,1-.57-.06Z"/><path class="cls-1" d="M383.49,555c-.19-2.43-.37-4.77-.55-7.12-.09-1.26-.16-2.53-.26-3.79s1.13-1.17,1.78-1.64c.13-.1.69.3,1,.54a4.87,4.87,0,0,1,1.81,5.14,23.1,23.1,0,0,0-.19,2.86A4.36,4.36,0,0,1,383.49,555Z"/><path class="cls-1" d="M379.11,550.89V540.67l.28-.08c.75.68,1.52,1.35,2.25,2a1.09,1.09,0,0,1,.22.65c.18,2,.35,4,.48,5.94,0,.27-.17.72-.37.8C381,550.37,380,550.62,379.11,550.89Z"/><path class="cls-1" d="M379.44,538.29a28.7,28.7,0,0,1,9.15-3.52c-.58.89-1,1.61-1.47,2.24s-1.2,1.22-1.7,1.91a4.3,4.3,0,0,1-2.28,1.61C381.26,541.13,379.92,540.36,379.44,538.29Z"/><path class="cls-1" d="M384.5,558.77c0,.94,0,2.48,0,4a.7.7,0,0,1-.38.51,5.1,5.1,0,0,1-4.26-.15Z"/><path class="cls-1" d="M380,557.85a4.06,4.06,0,0,1-1.33-3.15,1,1,0,0,1,.41-.72c.85-.49,1.74-.9,2.76-1.42.12,1.29.26,2.45.33,3.62a.89.89,0,0,1-.39.62C381.2,557.18,380.6,557.5,380,557.85Z"/><text class="cls-2" transform="translate(228.9 247.05)">i do n<tspan class="cls-3" x="25.01" y="0">o</tspan><tspan x="30.46" y="0">t need</tspan></text><text class="cls-2" transform="translate(236.49 279.31)"><tspan class="cls-4">y</tspan><tspan class="cls-5" x="5.02" y="0">o</tspan><tspan x="10.5" y="0">ur </tspan><tspan class="cls-4" x="22.67" y="0">v</tspan><tspan x="27.64" y="0">e</tspan></text><text class="cls-2" transform="translate(247.59 306.71)">ne<tspan class="cls-6" x="11" y="0">e</tspan><tspan class="cls-7" x="16.29" y="0">r o</tspan><tspan class="cls-8" x="28.57" y="0">o</tspan><tspan x="34.01" y="0">zing in</tspan><tspan class="cls-9" x="63.73" y="0">t</tspan><tspan x="67.19" y="0">o</tspan></text><text class="cls-2" transform="translate(247.32 334.4)"><tspan class="cls-9">m</tspan><tspan x="8.42" y="0">y c</tspan><tspan class="cls-10" x="21.55" y="0">a</tspan><tspan x="26.95" y="0">vities</tspan></text><text class="cls-2" transform="translate(229.72 364.77)">i do n<tspan class="cls-3" x="25.01" y="0">o</tspan><tspan x="30.46" y="0">t need</tspan></text><text class="cls-2" transform="translate(236.72 397.67)"><tspan class="cls-4">y</tspan><tspan class="cls-5" x="5.02" y="0">o</tspan><tspan x="10.5" y="0">ur </tspan><tspan class="cls-4" x="22.67" y="0">v</tspan><tspan x="27.64" y="0">ein c</tspan><tspan class="cls-11" x="49" y="0">r</tspan><tspan class="cls-12" x="52.73" y="0">o</tspan><tspan x="58" y="0">wn</tspan></text><text class="cls-2" transform="translate(229.32 426.53)"><tspan class="cls-9">m</tspan><tspan x="8.42" y="0">y m</tspan><tspan class="cls-5" x="24.97" y="0">o</tspan><tspan x="30.46" y="0">u</tspan><tspan class="cls-8" x="35.97" y="0">t</tspan><tspan x="39.39" y="0">h</tspan></text><text class="cls-2" transform="translate(242.32 453.25)">c<tspan class="cls-13" x="5.14" y="0">a</tspan><tspan class="cls-7" x="10.62" y="0">n ch</tspan><tspan class="cls-11" x="29.49" y="0">e</tspan><tspan x="34.75" y="0">w </tspan><tspan class="cls-4" x="45.2" y="0">y</tspan><tspan class="cls-14" x="50.22" y="0">o</tspan><tspan class="cls-7" x="55.7" y="0">u w</tspan></text><text class="cls-2" transform="translate(229.59 515.78)">i ma<tspan class="cls-15" x="19.36" y="0">k</tspan><tspan x="24.17" y="0">e </tspan><tspan class="cls-9" x="32.35" y="0">m</tspan><tspan class="cls-10" x="40.78" y="0">y</tspan><tspan x="45.89" y="0">self</tspan></text><text class="cls-2" transform="translate(253.52 484.61)">ho<tspan class="cls-16" x="11.14" y="0">l</tspan><tspan x="13.79" y="0">e </tspan><tspan class="cls-13" x="21.97" y="0">a</tspan><tspan class="cls-8" x="27.45" y="0">n</tspan><tspan x="32.79" y="0">d</tspan></text><text class="cls-17" transform="translate(235.59 556.27)"><tspan class="cls-11">r</tspan><tspan class="cls-16" x="3.73" y="0">o</tspan><tspan class="cls-15" x="9.76" y="0">y</tspan><tspan class="cls-18" x="14.82" y="0">a</tspan><tspan x="20.52" y="0">l.</tspan></text><text class="cls-19" transform="translate(256.8 673.15)"><tspan class="cls-20">D</tspan><tspan class="cls-21" x="17.39" y="0">E</tspan><tspan class="cls-22" x="32.81" y="0">N</tspan><tspan class="cls-23" x="52.6" y="0">T</tspan><tspan x="66.98" y="0">AL</tspan></text><text class="cls-19" transform="translate(256.8 125.34)"><tspan class="cls-20">D</tspan><tspan class="cls-21" x="17.39" y="0">E</tspan><tspan class="cls-24" x="32.81" y="0">N</tspan><tspan class="cls-25" x="52.6" y="0">T</tspan><tspan class="cls-26" x="66.98" y="0">AL</tspan></text><line class="cls-27" x1="602.64" y1="778.59" x2="602.64" y2="788.09"/><line class="cls-27" x1="602.64" y1="778.59" x2="608.1" y2="778.59"/><line class="cls-27" x1="602.64" y1="783.03" x2="607.07" y2="787.93"/><line class="cls-27" x1="602.64" y1="783.23" x2="608.1" y2="778.59"/><line class="cls-27" x1="608.16" y1="783.2" x2="608.16" y2="788.09"/><line class="cls-27" x1="601.45" y1="783.81" x2="597.18" y2="787.92"/></svg>