<?xml version="1.0" encoding="utf-8"?>
<!-- Generator: Adobe Illustrator 22.0.1, SVG Export Plug-In . SVG Version: 6.00 Build 0)  -->
<!DOCTYPE svg PUBLIC "-//W3C//DTD SVG 1.1//EN" "http://www.w3.org/Graphics/SVG/1.1/DTD/svg11.dtd" [
	<!ENTITY st0 "fill:#FFFFFF;">
	<!ENTITY st1 "fill:#404040;stroke:#404040;stroke-width:0.25;stroke-miterlimit:10;">
	<!ENTITY st2 "fill:#FFFFFF;stroke:#FFFFFF;stroke-width:0.75;stroke-miterlimit:10;">
	<!ENTITY st3 "fill:#404040;stroke:#404040;stroke-miterlimit:10;">
	<!ENTITY st4 "fill:#404040;">
	<!ENTITY st5 "fill:none;stroke:#AF0505;stroke-width:0.8;stroke-miterlimit:10;">
	<!ENTITY st6 "fill:#AF0505;">
	<!ENTITY st7 "fill:#290C51;">
	<!ENTITY st8 "fill:url(#SVGID_1_);">
	<!ENTITY st9 "fill:#FFFFFF;stroke:#404040;stroke-width:0.25;stroke-linecap:round;">
]>
<svg version="1.1" id="Layer_1" xmlns="http://www.w3.org/2000/svg" xmlns:xlink="http://www.w3.org/1999/xlink" x="0px" y="0px"
	 width="612px" height="778.4px" viewBox="0 0 612 778.4" style="enable-background:new 0 0 612 778.4;" xml:space="preserve">
<rect y="0" width="612" height="778.4"/>
<g>
	<path style="&st0;" d="M120.7,477.5c4.4-1,8.9-2.1,13.3-3c14.2-3,28.6-5.1,43.1-6.1c13.1-1,26.2-1.1,39.3-0.6
		c3.6,0.1,7.2-0.2,10.8-0.4c10.8-0.4,21.7-0.8,32.5-1.2c11.4-0.4,22.8-0.7,34.3-1c5.4-1.1,9.5,3.1,10.1,9c0.2,2,0,4.1,0,6.2
		c0,2.9,0,5.7,0.2,8.6c0.1,2.2,0.1,4.3-1.2,6.2c-0.4,0.6-0.8,0.8-1.5,0.7c-2.8-0.2-5.6-0.2-8.4-0.3c-3.7-0.1-7.3-0.1-11-0.2
		c-2-0.1-3.9-0.7-5.9-0.8c-2.5-0.2-5-0.1-7.5-0.2c-0.2,0-0.4,0.2-0.6,0.3c-0.1,0.1-0.2,0.2-0.3,0.3c-1.8,2.4-4.2,2.9-7.1,2.7
		c-8.5-0.5-17.1-0.6-25.6-1c-14.6-0.6-29-2.5-43.2-5.4c-13.7-2.8-27.4-5.8-41.1-8.4c-9.7-1.9-19.4-3.3-29.1-4.9
		c-0.3-0.1-0.6-0.1-0.9-0.2C120.7,477.6,120.7,477.5,120.7,477.5z"/>
	<path style="&st0;" d="M311.2,410.4c-2.4,0.1-4.6,0.2-6.8,0.3c-16.4,0.6-32.8,0.3-49.2-0.9c-11.7-0.9-23.3-1.9-35-2.9
		c-6.8-0.5-13.6-0.9-20.4-1.5c-24-2.2-46.7-8.9-68.1-20.2c-0.2-0.1-0.3-0.2-0.4-0.3c0,0-0.1-0.1-0.1-0.2c2.6,0.3,5.1,0.7,7.6,1
		c12.6,1.6,25.2,2,37.9,1.5c13.2-0.5,26.1-2.6,39.1-4.9c12-2.2,24.2-3.4,36.4-3.8c12.2-0.4,24.5-0.5,36.7,0
		c7.3,0.3,14.5,0.8,21.8,1.3c1,0.1,2.1,0.9,3,1.6c1.6,1.4,2.4,3.3,2.5,5.4c0.2,3.9,0.3,7.8,0.4,11.7c0.1,1.8-0.9,2.1-2.2,2.7
		c-0.6,0.2-1.1,0.6-1.6,1c-0.8,0.8-1.5,1.7-2.2,2.6c-1,1.1-1.1,2.4-0.5,3.7C310.5,409,310.8,409.6,311.2,410.4z"/>
	<path style="&st0;" d="M138.9,509.8c1.4,0.2,2.7,0.5,4.1,0.7c12.5,1.8,24.8,0.7,37-2.8c6.6-1.9,13.2-3.9,19.8-5.5
		c7.5-1.8,15.1-2.7,22.8-2.8c24.6-0.3,49.3-0.3,73.9,0.2c3.1,0.1,6.1,0.1,9.2,0.2c3,0.1,5.3,3,4.8,6.3c-0.2,1.5-0.7,3-1.3,4.3
		c-1.4,3.2-1.6,6.4-0.8,9.7c0.4,1.5,0.6,3,0.7,4.5c0.1,3.2-1.7,5.3-4.8,5.8c-1.2,0.2-2.5,0.3-3.8,0.3c-13.4,0.1-26.8-0.5-40.1-1.9
		c-12.9-1.3-25.8-2.4-38.7-3c-17.9-0.8-35.7-3.1-53.1-7.2c-9.7-2.3-19.2-5-28.5-8.3c-0.4-0.1-0.8-0.3-1.2-0.5
		C138.9,509.9,138.9,509.8,138.9,509.8z"/>
	<path style="&st0;" d="M128.3,271.3c3-0.7,6-1.5,9-2.2c16-3.7,32.2-6,48.5-7c9.9-0.6,19.9-0.6,29.8-0.3c4.5,0.1,9-0.3,13.6-0.4
		c15.1-0.3,30.3-0.6,45.4-0.8c4.4-0.1,8.9,0.1,13.3,0.2c0.9,0,1.9,0.3,2.8,0.6c-2,1.5-4.7,2.1-5.7,4.6c0.6,0.3,1.2,0.7,1.8,1.1
		c0.4,0.3,0.5,0.7,0,1.1c-0.7,0.6-0.5,1.2,0,1.9c0.4-0.1,0.8-0.1,1.3-0.2c2.1-0.6,4.2-0.3,6.1,0.7c1.4,0.7,2.9,1.3,4.5,1.4
		c0.5,0,0.8,0.3,0.8,0.8c0,3.2,0.1,6.4-0.2,9.6c-0.4,4.2-3.5,6.9-7.7,7.3c-15.4,1.2-30.8,1.6-46.2,0.8c-8.4-0.4-16.8-1.1-25.2-1.9
		c-8.8-0.9-17.6-2.6-26.3-4.4c-16.2-3.3-32.4-6.6-48.7-9.8c-5.6-1.1-11.3-1.9-16.9-2.9C128.3,271.5,128.3,271.4,128.3,271.3z"/>
	<path style="&st0;" d="M163.2,364.8c7.5-3.3,14.9-6,22.5-8.3c12.2-3.7,24.7-6.1,37.3-7.9c10.5-1.5,21.1-2.4,31.8-2.7
		c1,0,1.8,0.2,2.6,0.7c1.7,1.1,3.3,2.1,4.3,4c0.6,1.1,2.7,1.5,3.9,1.1c1.2-0.4,2.5-0.9,3.8-1c2.7-0.1,5-1.2,6.9-2.8
		c1.8-1.6,3.7-1.9,6-1.8c6.9,0.2,13.9,0.3,20.8,0.5c2.8,0.1,4.8,1.4,6.3,3.6c1.2,1.8,1.8,3.7,2,5.8c0.4,5.1,0.4,10.3-0.5,15.4
		c-0.1,0.5-0.2,0.9-0.4,1.4c-0.6,2.2-2,3.9-5,3.9c-8.7,0-17.5,0.5-26.2,0.5c-13.7,0.1-27.4-0.9-41-2c-11-0.9-22.1-1.7-33.2-2.4
		c-10.3-0.6-20.6-1.4-30.6-4.3c-3.5-1-6.9-2.3-10.4-3.4C163.8,365.1,163.6,365,163.2,364.8z"/>
	<path style="&st0;" d="M105.3,317.8c0.8-0.2,1.6-0.5,2.3-0.7c26.8-7.4,53.9-13.6,81.3-18.3c10.4-1.8,20.9-3.4,31.4-4.8
		c8-1.1,16-1.2,24-1.3c9.6-0.1,19.2-0.1,28.8-0.3c7.5-0.2,14.9-0.7,22.4-0.8c6.5-0.1,12.9,0.2,19.2,1.5c7.5,1.6,13.2,5.6,16.8,12.5
		c0.1,0.2,0.1,0.3,0.3,0.6c-0.3,0.2-0.6,0.3-0.8,0.5c-8.8,4.8-18.2,7.6-28.1,9c-11.3,1.6-22.7,1.4-34.1,1.1
		c-8.6-0.2-17.2-0.4-25.8-1c-8.9-0.5-17.7-1.2-26.6-2.2c-16.9-1.8-33.8-3.3-50.8-2.9c-20.1,0.4-39.9,2.8-59.5,7.1
		c-0.3,0.1-0.6,0.1-0.9,0.2C105.3,317.9,105.3,317.8,105.3,317.8z"/>
	<path style="&st0;" d="M154.3,453.4c0.3,0,0.6-0.1,0.9-0.1c19-0.5,37.5-4,55.7-9.7c7.2-2.3,14.4-4.3,21.9-5.3
		c6.2-0.9,12.5-0.8,18.7-0.4c9.7,0.6,19.3,0.5,29,0.2c3.5-0.1,7-0.1,10.5-0.1c0.4,0,0.9,0.2,1.3,0.5c0.6,0.4,1.1,1,1.7,1.4
		c0.3,0.2,0.9,0.4,1.3,0.3c2.9-0.5,5.8-1.2,8.7-1.5c1.4-0.1,2.9,0.3,4.4,0.6c10.8,2.4,19.6,7.9,26.5,16.6c0.3,0.4,0.6,0.8,1,1.3
		c-2.9,0.7-5.5,1.6-8.2,2c-6.2,0.9-12.4,1.7-18.6,2.3c-8.5,0.8-16.9,1.5-25.4,2.2c-15.7,1.3-31.5,1.8-47.3,0.8
		c-11.5-0.7-22.8-2.5-34.1-4.5c-12.3-2.1-24.6-4-37.1-5.3c-3.5-0.4-7-0.7-10.5-1.1C154.3,453.5,154.3,453.4,154.3,453.4z"/>
	<path style="&st0;" d="M166,251c1.2-1.3,2.4-2.7,3.7-3.9c5-4.6,11.1-7,17.9-7.6c4.8-0.5,9.7-0.6,14.6-1.1c3.9-0.4,7.9-1.1,11.8-1.8
		c1.1-0.2,1.9-0.3,2.7,0.5c0.9,0.9,1.7,0.9,2.7,0.1c0.6-0.4,1.3-0.8,2-0.9c1.3-0.2,2.4-0.8,3.2-1.9c0.6-0.7,1.4-1,2.3-1.2
		c19.6-3.5,39.5-5,59.4-4.4c5.9,0.2,11.8,0.6,17.7,1c3.7,0.2,5.9,3.5,4.9,7.1c-0.3,1.1-0.9,2.1-1.4,3.1c-0.6,1.1-1.2,2.2-1.8,3.3
		c-1,1.9-1.2,3.9-0.4,6c0.3,0.8,0.6,1.6,0.8,2.4c1.2,4.2-1.2,7.9-5.6,8.3c-1.3,0.1-2.7-0.1-4.1-0.2c-10.6-1.1-21.2-1.1-31.8-0.5
		c-19,1-37.6-1.1-55.7-7.2c-5.5-1.8-11.1-3.4-16.8-4.3c-8.8-1.4-17.3-0.7-25.4,3.2c-0.2,0.1-0.4,0.1-0.5,0.2
		C166.2,251.1,166.1,251.1,166,251z"/>
	<path style="&st0;" d="M157.4,342c2.2-0.7,4.4-1.4,6.5-2.1c18.9-6,38-11.4,57.2-15.9c7.2-1.7,14.6-2.7,21.9-3.7
		c13.7-1.9,27.5-2.5,41.4-2.1c5.7,0.2,11.4,0.6,17.2,1c1.9,0.1,3.2,1.2,3.7,3c0.4,1.5,0.7,3,0.8,4.5c0.2,3.1,0.6,6.2,1.4,9.2
		c1.1,4.7-1.5,7.9-6.4,8.1c-15.3,0.6-30.6,0.8-45.9,0.1c-11.9-0.5-23.7-1.3-35.5-2.2c-12.4-0.9-24.8-2.3-37.3-2.1
		c-8.2,0.2-16.4,0.9-24.5,2.2c-0.1,0-0.3,0-0.4,0C157.4,342.1,157.4,342.1,157.4,342z"/>
	<path style="&st0;" d="M167.1,434.5c0.5-0.4,0.7-0.7,1-0.9c12.6-10.6,27-17.4,43.3-20.3c11.6-2.1,23.3-2.4,35.1-2.2
		c10.8,0.2,21.6,0.6,32.4,0.9c1.5,0,2.8,0.3,4,1.3c0.6,0.5,1.3,0.9,2,1.3c0.5,0.2,1.1,0.3,1.6,0.4c0.3,0.1,0.8,0,1,0.1
		c0.7,0.7,1.5,0.7,2.4,0.6c2.2-0.1,4.4,0,6.5,1c0.4,0.2,0.9,0.1,1.7,0.2c0,0.9,0.2,1.9,0,2.8c-0.9,3.2-0.8,6.4-0.7,9.6
		c0.1,1.5-0.2,3-0.7,4.4c-0.7,1.8-2.2,2.8-4.2,2.9c-12.7,0.5-25.3,0.6-38,0.2c-12.2-0.4-24.4-1.3-36.5-2.4c-9.8-0.9-19.5-2.1-29.3-2
		c-6.9,0.1-13.8,0.8-20.7,2.1C167.7,434.4,167.6,434.4,167.1,434.5z"/>
</g>
<g>
	<path style="&st0;" d="M379.4,218.7c0-3.9,0-7.7,0-11.6c0-1.6,0.3-3.1,1.3-4.3c0.8-1.1,1.9-1.7,3.2-1.8c9.7-0.9,19,0.7,28.1,3.7
		c1.7,0.6,2.7,1.8,3.2,3.4c3.3,9.3,2.7,18.2-1.9,26.9c-0.2,0.3-0.3,0.6-0.5,0.9c-0.6,1.3-1.7,1.9-3.1,1.9c-8.1,0.1-16.1-0.2-24.2-1
		c-4.1-0.4-6.3-2.5-6.3-6.6"/>
	<path style="&st0;" d="M384.3,517.8c-2,0.1-3.7-0.7-4.6-2.6c-0.5-1.1-0.8-2.3-0.8-3.4c-0.1-6.7,0-13.3,0-20c0-3.9,1.9-6.1,5.7-6.6
		c8.1-1.1,16.3-1.7,24.5-1.5c1.3,0,2.3,0.5,3,1.7c3.3,5.6,4.8,11.7,4.6,18.2c-0.1,3.6-0.8,7.1-2.2,10.4c-0.3,0.9-0.9,1.7-1.6,2.3
		c-0.5,0.5-1.3,0.7-2,0.7c-3.7,0.1-7.5,0-11.2,0"/>
	<path style="&st0;" d="M384.5,271.6c-3.8-0.4-5.6-3-5.6-6.8c0-6.7,0-13.3,0-20c0-1.7,0.4-3.2,1.5-4.5c1-1.1,2.2-1.7,3.7-1.6
		c8.8,0.7,17.5,0.9,26.3,0.7c1.7,0,3,0.7,3.6,2.1c0.9,2,1.6,4.2,2.1,6.3c1.6,8.3,0.3,16.1-4,23.4c-0.6,1.1-1.6,1.6-2.8,1.6
		c-2.3,0-6.8-0.1-6.8-0.1"/>
	<path style="&st0;" d="M397.4,482.2c-4.3,0.2-8.6,0.3-12.8,0.7c-3.2,0.3-5.6-2-5.7-5.4c-0.1-6.4,0-12.9,0-19.3c0-1.9,1.1-3.5,2.9-4
		c1.6-0.4,3.2-0.8,4.8-0.8c8.3-0.1,16.7,0.6,24.9,1.6c1.9,0.2,2.8,1.6,3.3,3.2c0.8,2.8,1.5,5.6,1.8,8.4c0.4,4.1-0.2,8.1-1.5,12.1
		c-0.8,2.2-2.1,3.2-4.4,3.3C406.2,481.9,401.8,482,397.4,482.2z"/>
	<path style="&st0;" d="M397.5,274.4c4.4,0.1,8.8,0.3,13.3,0.3c2.1,0,3.4,1.1,4.1,2.9c2.5,7,2.4,14.1-0.1,21.2
		c-0.6,1.7-1.9,2.8-4,3.1c-8.2,1-16.4,1.6-24.6,1.5c-1.5,0-3.1-0.4-4.6-0.9c-1.7-0.5-2.7-2.1-2.7-4c0-6.4,0-12.8,0-19.1
		c0-2.7,1.9-5.8,5.8-5.5C388.9,274,393.2,274.1,397.5,274.4z"/>
	<path style="&st0;" d="M366.1,320.2c4.7-4.8,9.3-9.5,14-14.3c1.2-1.2,2.7-1.6,4.5-1.5c4.4,0.3,8.9,0.2,13.4,0.5
		c4.6,0.3,9.2,0.9,13.8,1.4c1.5,0.2,2.7,1.1,3.3,2.5c2.1,4.9,2.1,9.9-0.3,14.7c-0.7,1.4-1.8,2.4-3.5,2.6c-8.4,1.2-16.9,2.1-25.3,1.6
		c-7-0.4-13.5-2.5-19.1-7C366.6,320.7,366.5,320.5,366.1,320.2z"/>
	<path style="&st0;" d="M366.2,436.2c2.7-2.4,5.7-4.1,9-5.3c4.5-1.6,9.2-2.5,14-2.4c7.4,0.2,14.9,0.6,22.2,1.8
		c1.6,0.2,2.7,1.1,3.3,2.5c2.4,4.9,2.5,10,0.3,15c-0.6,1.4-1.8,2.2-3.4,2.4c-8.2,1.1-16.4,1.7-24.6,1.9c-1.1,0-2.1,0-3.2,0.1
		c-1.6,0.1-2.9-0.7-4-1.8c-2.1-2.1-4.3-4.3-6.4-6.4C371,441.4,368.6,438.8,366.2,436.2z"/>
	<path style="&st0;" d="M378.8,341.1c0-2.5,0-5,0-7.5c0-2.4,2-4.3,4.8-4.3c9.2-0.1,18.4,0.6,27.4,2.4c2.3,0.4,3.7,1.6,4.5,3.8
		c1.5,4.4,1.4,8.6-0.6,12.8c-0.8,1.6-1.9,2.6-3.8,2.9c-8.3,1.2-16.7,1.8-25.1,1.6c-1.5,0-3-0.4-4.4-0.7c-1.9-0.5-2.6-1.6-2.6-3.6
		C378.9,346,378.8,343.6,378.8,341.1C378.8,341.1,378.8,341.1,378.8,341.1z"/>
	<path style="&st0;" d="M378.8,415.3c0-2.5,0-5.1,0-7.6c0-1.5,0.7-2.7,2.3-3.1c1.6-0.4,3.4-0.8,5-0.8c8.6-0.2,17.1,0.5,25.5,1.7
		c1.4,0.2,2.3,1.2,2.9,2.4c2.4,4.8,2.5,9.6,0.3,14.5c-0.6,1.3-1.8,2-3.2,2.3c-8.8,1.8-17.6,2.6-26.6,2.6c-0.9,0-1.9,0-2.8-0.1
		c-2.3-0.4-3.7-2.2-3.6-4.5c0-0.2,0-0.3,0-0.5C378.9,419.7,378.9,417.5,378.8,415.3C378.8,415.3,378.8,415.3,378.8,415.3z"/>
	<path style="&st0;" d="M378.8,365.9c0-2.5,0-5,0-7.5c0-2.5,2-4.3,4.7-4.4c9.3-0.1,18.6,0.6,27.7,2.4c2.1,0.4,3.4,1.5,4.2,3.5
		c1.6,4.4,1.5,8.7-0.5,13c-0.8,1.6-2,2.7-3.9,2.9c-8.3,1.2-16.7,1.8-25.1,1.6c-1.5,0-2.9-0.3-4.3-0.7c-2-0.5-2.7-1.6-2.7-3.7
		C378.9,370.7,378.8,368.3,378.8,365.9C378.8,365.9,378.8,365.9,378.8,365.9z"/>
	<path style="&st0;" d="M378.8,390.6c0-2.4,0-4.9,0-7.3c0-1.9,0.7-3,2.5-3.5c1.6-0.4,3.2-0.7,4.9-0.8c8.6-0.2,17.1,0.5,25.5,1.7
		c1.4,0.2,2.3,1.1,2.9,2.3c2.5,4.8,2.6,9.7,0.3,14.6c-0.6,1.3-1.7,2-3.1,2.3c-6.4,1.3-12.8,2.1-19.3,2.4c-2.9,0.1-5.8,0.1-8.7,0.2
		c-2.9,0-5.2-2.1-4.9-5C379,395.2,378.8,392.9,378.8,390.6C378.8,390.6,378.8,390.6,378.8,390.6z"/>
	<path style="&st0;" d="M398.3,532.3c-6.7,0.5-12.9,1.9-18.7,5.1c0-0.5,0-0.9,0-1.3c0.1-3.3,0.1-6.6,0.2-9.9c0-3.7,1.5-5.7,5.2-6.3
		c2.4-0.4,4.9-0.4,7.4-0.6c1.7-0.1,3.4-0.2,5-0.3c0.6,0,0.9,0.1,0.9,0.7c0,0.8,0.2,1.7,0.1,2.5c-0.3,2.4-0.2,4.9-1.2,7.2
		C396.6,530.5,397,531.5,398.3,532.3z"/>
	<path style="&st0;" d="M399.2,519.2c2.1,0,4.5,0,6.8,0c1.4,0,2.7,0,4.1,0.1c1.1,0,2,0.5,2.6,1.4c3.1,5,4.7,10.3,4.7,16.2
		c0,0.3,0,0.6,0,1.1c-0.4-0.1-0.7-0.2-0.9-0.3c-4.8-1.7-9.5-3.5-14.3-5.2c-0.9-0.3-1.9-0.4-2.9-0.6c-1.1-0.2-1.5-0.6-1.4-1.7
		c0-0.1,0-0.2,0-0.3c0.4-2.4,0.9-4.8,1.2-7.2C399.3,521.5,399.2,520.4,399.2,519.2z"/>
	<path style="&st0;" d="M404.3,553.1c-1.6-3.6-3.1-7.2-3.8-11.1c-0.4-2.4-0.5-2.4,1.7-3.5c0.6-0.3,1.3-0.6,2-0.9
		c1.4-0.6,2.7-1.3,4.1-1.9c0.3-0.1,0.7-0.3,1-0.2c2.8,1.1,5.5,2.2,8.4,3.4c-0.6,3.3-1.1,6.5-1.7,9.7c-1-0.6-1.9-1.1-2.8-1.6
		c-0.6-0.3-1-0.1-1.6,0.3c-2,1.7-4.1,3.4-6.2,5.1C405,552.7,404.6,552.8,404.3,553.1z"/>
	<path style="&st0;" d="M385,540.2c0.6-0.7,1-1.4,1.7-1.9c1-0.7,1.7-1.7,2-2.9c0.2-0.7,0.6-1,1.3-1.1c3.6-0.5,7.1-1.1,10.6-1.6
		c0.4-0.1,0.8,0.1,1.2,0.2c2,0.7,3.9,1.5,5.9,2.3c-0.3,0.2-0.7,0.5-1.1,0.7c-2.2,0.9-4.5,1.8-6.7,2.8c-1.9,0.9-3.8,1.8-5.7,2.7
		c-0.7,0.3-0.9,0.9-1,1.7c-0.1,2.3-0.3,4.6-0.4,7c-0.1,0-0.2,0.1-0.3,0.1C390.1,546.9,387.5,543.6,385,540.2z"/>
	<path style="&st0;" d="M399.5,541.8c0.6,1.9,1,3.8,1.7,5.6c0.9,2.5,2,4.9,3.1,7.2c0.3,0.7,0.2,1-0.3,1.6c-2.6,2.7-6,2.8-9.5,3.4
		c-0.2-2.4-0.6-4.7-0.7-7c-0.1-2.1,0.1-4.3,0.2-6.5c0-0.5,0.4-1,0.8-1.3C396.2,543.8,397.8,542.8,399.5,541.8z"/>
	<path style="&st0;" d="M386.8,566c0.1-0.4,0.1-0.7,0.2-0.9c0.7-1.6,0.8-3.3,0.5-5c-0.2-0.8,0.2-1.8,0.2-2.6c0-1.5,0-2.9,0-4.4
		c0.1-0.1,0.2-0.1,0.3-0.2c0.4,0.6,1.1,1.1,1.3,1.8c0.4,1.3,1.3,2,2.3,2.8c1.2,1,1.8,2.3,2,3.8c0.2,1.5,0.3,3,0.5,4.7
		C391.7,566,389.3,566,386.8,566z"/>
	<path style="&st0;" d="M402,572.6c1.8-0.9,3.5-1.8,5.3-2.6c1.8-0.8,3.7-1.5,5.1-3.1c0.5-0.6,1.6-0.9,2.5-1.1
		c0.9-0.2,2.4,1.8,2.1,2.6c-0.6,1.5-1.6,2.6-3.1,2.9c-3.7,0.8-7.4,1.7-11.2,1.7c-0.2,0-0.4,0-0.6-0.1
		C402.1,572.7,402.1,572.7,402,572.6z"/>
	<path style="&st0;" d="M383.5,555c-0.2-2.4-0.4-4.8-0.5-7.1c-0.1-1.3-0.2-2.5-0.3-3.8c-0.1-1.3,1.1-1.2,1.8-1.6
		c0.1-0.1,0.7,0.3,1,0.5c1.6,1.3,2.3,3,1.8,5.1c-0.2,0.9-0.1,1.9-0.2,2.9C386.9,553.1,385.7,554.5,383.5,555z"/>
	<path style="&st0;" d="M379.1,550.9c0-3.5,0-6.9,0-10.2c0.1,0,0.2-0.1,0.3-0.1c0.8,0.7,1.5,1.3,2.2,2c0.1,0.1,0.2,0.4,0.2,0.6
		c0.2,2,0.4,4,0.5,5.9c0,0.3-0.2,0.7-0.4,0.8C381,550.4,380,550.6,379.1,550.9z"/>
	<path style="&st0;" d="M379.4,538.3c2.8-1.5,5.6-3,9.2-3.5c-0.6,0.9-1,1.6-1.5,2.2c-0.5,0.7-1.2,1.2-1.7,1.9
		c-0.6,0.8-1.3,1.3-2.3,1.6C381.3,541.1,379.9,540.4,379.4,538.3z"/>
	<path style="&st0;" d="M384.5,558.8c0,0.9,0,2.5,0,4c0,0.2-0.2,0.4-0.4,0.5c-1.6,0.6-3.1,0.5-4.3-0.1
		C381.4,561.7,383,560.2,384.5,558.8z"/>
	<path style="&st0;" d="M380,557.9c-1-0.9-1.3-1.9-1.3-3.1c0-0.2,0.2-0.6,0.4-0.7c0.9-0.5,1.7-0.9,2.8-1.4c0.1,1.3,0.3,2.5,0.3,3.6
		c0,0.2-0.2,0.5-0.4,0.6C381.2,557.2,380.6,557.5,380,557.9z"/>
</g>
<g>
	<path style="&st1;" d="M224.8,240.8c0-0.1,0.1-0.2,0.2-0.2c0.1,0,0.2,0.1,0.2,0.2v0.2c0,0.1-0.1,0.3-0.2,0.3
		c-0.1,0-0.2-0.1-0.2-0.3V240.8z M224.8,242.4c0-0.1,0.1-0.2,0.2-0.2c0.1,0,0.2,0.1,0.2,0.2v4.4c0,0.1-0.1,0.2-0.2,0.2
		c-0.1,0-0.2-0.1-0.2-0.2V242.4z"/>
	<path style="&st1;" d="M234.6,246.1c-0.4,0.6-1.1,0.9-1.9,0.9c-1.3,0-2.4-1.1-2.4-2.4c0-1.4,1-2.5,2.4-2.5c0.8,0,1.4,0.4,1.9,1
		v-2.8c0-0.1,0.1-0.2,0.2-0.2c0.1,0,0.2,0.1,0.2,0.2v4.2v0.1v2.2c0,0.1-0.1,0.2-0.2,0.2c-0.1,0-0.2-0.1-0.2-0.2V246.1z M234.6,244.7
		v-0.2c0-1-0.9-1.9-1.9-1.9c-1,0-1.9,0.9-1.9,2c0,1.1,0.8,1.9,1.9,1.9C233.7,246.6,234.5,245.7,234.6,244.7z"/>
	<path style="&st1;" d="M239.3,242.2c1.3,0,2.3,1.1,2.3,2.4s-1,2.4-2.3,2.4c-1.3,0-2.3-1.1-2.3-2.4S238.1,242.2,239.3,242.2z
		 M239.3,246.6c1,0,1.8-0.9,1.8-2c0-1.1-0.8-2-1.8-2c-1,0-1.8,0.9-1.8,2C237.5,245.7,238.3,246.6,239.3,246.6z"/>
	<path style="&st1;" d="M250,244.1c0-0.8-0.7-1.5-1.5-1.5c-0.8,0-1.5,0.7-1.5,1.5v2.7v0c0,0,0,0.1-0.1,0.1c0,0.1-0.1,0.1-0.2,0.1
		h-0.1c-0.1,0-0.1-0.1-0.2-0.1c0,0,0,0,0,0c0,0,0,0,0,0v-0.1v-2.7v-0.1v-1.7c0-0.1,0.1-0.2,0.2-0.2c0.1,0,0.2,0.1,0.2,0.2v0.5
		c0.4-0.4,0.9-0.7,1.5-0.7c1.1,0,2,0.9,2,2v2.7c0,0.1-0.1,0.2-0.2,0.2s-0.2-0.1-0.2-0.2V244.1z"/>
	<path style="&st1;" d="M254.7,242.2c1.3,0,2.3,1.1,2.3,2.4s-1,2.4-2.3,2.4c-1.3,0-2.3-1.1-2.3-2.4S253.4,242.2,254.7,242.2z
		 M254.7,246.6c1,0,1.8-0.9,1.8-2c0-1.1-0.8-2-1.8-2c-1,0-1.8,0.9-1.8,2C252.9,245.7,253.7,246.6,254.7,246.6z"/>
	<path style="&st1;" d="M260.4,242.4c0,0.1-0.1,0.2-0.2,0.2h-0.6v3.6c0,0.2,0.2,0.4,0.4,0.4c0.1,0,0.2,0.1,0.2,0.2
		c0,0.1-0.1,0.2-0.2,0.2c-0.5,0-0.9-0.4-0.9-0.8v-3.6h-0.6c-0.2,0-0.2-0.1-0.2-0.2s0-0.2,0.2-0.2h0.6v-1.8c0-0.1,0.1-0.2,0.2-0.2
		c0.1,0,0.3,0.1,0.3,0.2v1.8h0.6C260.3,242.2,260.4,242.3,260.4,242.4z"/>
	<path style="&st1;" d="M269.2,244.1c0-0.8-0.7-1.5-1.5-1.5c-0.8,0-1.5,0.7-1.5,1.5v2.7v0c0,0,0,0.1-0.1,0.1c0,0.1-0.1,0.1-0.2,0.1
		h-0.1c-0.1,0-0.1-0.1-0.2-0.1c0,0,0,0,0,0c0,0,0,0,0,0v-0.1v-2.7v-0.1v-1.7c0-0.1,0.1-0.2,0.2-0.2c0.1,0,0.2,0.1,0.2,0.2v0.5
		c0.4-0.4,0.9-0.7,1.5-0.7c1.1,0,2,0.9,2,2v2.7c0,0.1-0.1,0.2-0.2,0.2s-0.2-0.1-0.2-0.2V244.1z"/>
	<path style="&st1;" d="M271.5,244.6c0-1.4,1.1-2.5,2.4-2.5c1.3,0,2.3,1,2.4,2.3v0v0c0,0.1-0.1,0.2-0.2,0.2h-4
		c0,1.1,0.9,1.9,1.9,1.9c0.6,0,1.2-0.3,1.6-0.9c0.1-0.1,0.2-0.1,0.3-0.1c0.1,0.1,0.1,0.2,0.1,0.3c-0.4,0.7-1.1,1.1-2,1.1
		C272.5,247,271.5,245.9,271.5,244.6z M272,244.2h3.7c-0.2-0.9-0.9-1.6-1.8-1.6C272.9,242.6,272.2,243.3,272,244.2z"/>
	<path style="&st1;" d="M277.6,244.6c0-1.4,1.1-2.5,2.4-2.5c1.3,0,2.3,1,2.4,2.3v0v0c0,0.1-0.1,0.2-0.2,0.2h-4
		c0,1.1,0.9,1.9,1.9,1.9c0.6,0,1.2-0.3,1.6-0.9c0.1-0.1,0.2-0.1,0.3-0.1c0.1,0.1,0.1,0.2,0.1,0.3c-0.4,0.7-1.1,1.1-2,1.1
		C278.6,247,277.6,245.9,277.6,244.6z M278.1,244.2h3.7c-0.2-0.9-0.9-1.6-1.8-1.6C279,242.6,278.2,243.3,278.1,244.2z"/>
	<path style="&st1;" d="M287.9,246.1c-0.4,0.6-1.1,0.9-1.9,0.9c-1.3,0-2.4-1.1-2.4-2.4c0-1.4,1-2.5,2.4-2.5c0.8,0,1.4,0.4,1.9,1
		v-2.8c0-0.1,0.1-0.2,0.2-0.2c0.1,0,0.2,0.1,0.2,0.2v4.2v0.1v2.2c0,0.1-0.1,0.2-0.2,0.2c-0.1,0-0.2-0.1-0.2-0.2V246.1z M287.9,244.7
		v-0.2c0-1-0.9-1.9-1.9-1.9c-1,0-1.9,0.9-1.9,2c0,1.1,0.8,1.9,1.9,1.9C287,246.6,287.9,245.7,287.9,244.7z"/>
</g>
<g>
	<path style="&st1;" d="M232,274.6c0-0.1,0.1-0.2,0.2-0.2c0.1,0,0.2,0.1,0.2,0.2v2.7c0,0.8,0.7,1.5,1.5,1.5c0.8,0,1.5-0.7,1.5-1.5
		v-2.7c0,0,0-0.1,0-0.1c0,0,0,0,0,0c0,0,0,0,0,0c0,0,0.1,0,0.1-0.1h0c0,0,0,0,0,0h0h0c0,0,0.1,0,0.1,0.1c0,0,0,0,0.1,0.1
		c0,0,0,0.1,0,0.1v2.7v0.1v1.5c0,1.3-1,2.3-2.3,2.3c-0.4,0-0.7-0.1-1-0.2c-0.1-0.1-0.2-0.2-0.1-0.3c0.1-0.1,0.2-0.1,0.3-0.1
		c0.2,0.1,0.5,0.2,0.8,0.2c1,0,1.8-0.8,1.8-1.8v-0.3c-0.4,0.4-0.9,0.7-1.5,0.7c-1.1,0-2-0.9-2-2V274.6z"/>
	<path style="&st1;" d="M240.1,274.4c1.3,0,2.3,1.1,2.3,2.4s-1,2.4-2.3,2.4c-1.3,0-2.3-1.1-2.3-2.4S238.8,274.4,240.1,274.4z
		 M240.1,278.8c1,0,1.8-0.9,1.8-2c0-1.1-0.8-2-1.8-2s-1.8,0.9-1.8,2C238.2,277.9,239.1,278.8,240.1,278.8z"/>
	<path style="&st1;" d="M244,274.6c0-0.1,0.1-0.2,0.2-0.2s0.2,0.1,0.2,0.2v2.7c0,0.8,0.7,1.5,1.5,1.5c0.8,0,1.5-0.7,1.5-1.5v-2.7
		c0-0.1,0.1-0.2,0.2-0.2c0.1,0,0.2,0.1,0.2,0.2v2.7c0,1.1-0.9,2-2,2c-1.1,0-2-0.9-2-2V274.6z"/>
	<path style="&st1;" d="M250.2,274.7c0-0.1,0.1-0.2,0.2-0.2c0.1,0,0.2,0.1,0.2,0.2v1.1c0,0,0-0.1,0.1-0.1c0.4-0.6,1-1.2,2-1.2
		c0.1,0,0.2,0.1,0.2,0.2c0,0.1-0.1,0.2-0.2,0.2c-0.6,0-1.1,0.4-1.4,0.8c-0.3,0.4-0.5,0.9-0.6,1.1c0,0,0,0.1,0,0.1v2.1
		c0,0.1-0.1,0.2-0.2,0.2c-0.1,0-0.2-0.1-0.2-0.2V274.7z"/>
	<path style="&st1;" d="M259.2,279.3c0,0-0.1-0.1-0.1-0.1l-1.8-4.4c0-0.1,0-0.3,0.1-0.3c0.1,0,0.3,0,0.3,0.1l1.6,3.9l1.6-3.9
		c0-0.1,0.2-0.2,0.3-0.1s0.2,0.2,0.1,0.3l-1.8,4.3c0,0,0,0.1-0.1,0.1c0,0-0.1,0.1-0.2,0.1C259.3,279.3,259.3,279.3,259.2,279.3
		C259.2,279.3,259.2,279.3,259.2,279.3C259.2,279.3,259.2,279.3,259.2,279.3z"/>
	<path style="&st1;" d="M262.8,276.9c0-1.4,1.1-2.5,2.4-2.5c1.3,0,2.3,1,2.4,2.3v0v0c0,0.1-0.1,0.2-0.2,0.2h-4
		c0,1.1,0.9,1.9,1.9,1.9c0.6,0,1.2-0.3,1.6-0.9c0.1-0.1,0.2-0.1,0.3-0.1c0.1,0.1,0.1,0.2,0.1,0.3c-0.4,0.7-1.1,1.1-2,1.1
		C263.8,279.3,262.8,278.2,262.8,276.9z M263.3,276.5h3.7c-0.2-0.9-0.9-1.6-1.8-1.6C264.2,274.9,263.5,275.6,263.3,276.5z"/>
</g>
<g>
	<path style="&st1;" d="M247,303.8c0-0.8-0.7-1.5-1.5-1.5c-0.8,0-1.5,0.7-1.5,1.5v2.7v0c0,0,0,0.1-0.1,0.1c0,0.1-0.1,0.1-0.2,0.1
		h-0.1c-0.1,0-0.1-0.1-0.2-0.1c0,0,0,0,0,0c0,0,0,0,0,0v-0.1v-2.7v-0.1v-1.7c0-0.1,0.1-0.2,0.2-0.2c0.1,0,0.2,0.1,0.2,0.2v0.5
		c0.4-0.4,0.9-0.7,1.5-0.7c1.1,0,2,0.9,2,2v2.7c0,0.1-0.1,0.2-0.2,0.2s-0.2-0.1-0.2-0.2V303.8z"/>
	<path style="&st1;" d="M249.3,304.3c0-1.4,1.1-2.5,2.4-2.5c1.3,0,2.3,1,2.4,2.3v0v0c0,0.1-0.1,0.2-0.2,0.2h-4
		c0,1.1,0.9,1.9,1.9,1.9c0.6,0,1.2-0.3,1.6-0.9c0.1-0.1,0.2-0.1,0.3-0.1c0.1,0.1,0.1,0.2,0.1,0.3c-0.4,0.7-1.1,1.1-2,1.1
		C250.4,306.7,249.3,305.6,249.3,304.3z M249.8,303.9h3.7c-0.2-0.9-0.9-1.6-1.8-1.6C250.8,302.3,250,303,249.8,303.9z"/>
	<path style="&st1;" d="M255.4,304.3c0-1.4,1.1-2.5,2.4-2.5c1.3,0,2.3,1,2.4,2.3v0v0c0,0.1-0.1,0.2-0.2,0.2h-4
		c0,1.1,0.9,1.9,1.9,1.9c0.6,0,1.2-0.3,1.6-0.9c0.1-0.1,0.2-0.1,0.3-0.1c0.1,0.1,0.1,0.2,0.1,0.3c-0.4,0.7-1.1,1.1-2,1.1
		C256.4,306.7,255.4,305.6,255.4,304.3z M255.9,303.9h3.7c-0.2-0.9-0.9-1.6-1.8-1.6C256.8,302.3,256.1,303,255.9,303.9z"/>
	<path style="&st1;" d="M261.6,302.1c0-0.1,0.1-0.2,0.2-0.2c0.1,0,0.2,0.1,0.2,0.2v1.1c0,0,0-0.1,0.1-0.1c0.4-0.6,1-1.2,2-1.2
		c0.1,0,0.2,0.1,0.2,0.2c0,0.1-0.1,0.2-0.2,0.2c-0.6,0-1.1,0.4-1.4,0.8c-0.3,0.4-0.5,0.9-0.6,1.1c0,0,0,0.1,0,0.1v2.1
		c0,0.1-0.1,0.2-0.2,0.2c-0.1,0-0.2-0.1-0.2-0.2V302.1z"/>
	<path style="&st1;" d="M271.1,301.8c1.3,0,2.3,1.1,2.3,2.4s-1,2.4-2.3,2.4c-1.3,0-2.3-1.1-2.3-2.4S269.8,301.8,271.1,301.8z
		 M271.1,306.2c1,0,1.8-0.9,1.8-2c0-1.1-0.8-2-1.8-2c-1,0-1.8,0.9-1.8,2C269.3,305.4,270.1,306.2,271.1,306.2z"/>
	<path style="&st1;" d="M277.3,301.8c1.3,0,2.3,1.1,2.3,2.4s-1,2.4-2.3,2.4c-1.3,0-2.3-1.1-2.3-2.4S276.1,301.8,277.3,301.8z
		 M277.3,306.2c1,0,1.8-0.9,1.8-2c0-1.1-0.8-2-1.8-2c-1,0-1.8,0.9-1.8,2C275.5,305.4,276.3,306.2,277.3,306.2z"/>
	<path style="&st1;" d="M281.2,302.3c-0.1,0-0.2-0.1-0.2-0.2c0-0.1,0.1-0.2,0.2-0.2h3.2c0.1,0,0.1,0,0.2,0l0,0l0,0
		c0.1,0.1,0.1,0.1,0.1,0.2c0,0.1,0,0.1-0.1,0.1l-2.9,3.9h2.7c0.1,0,0.2,0.1,0.2,0.2c0,0.1-0.1,0.2-0.2,0.2h-3.2
		c-0.1,0-0.2-0.1-0.2-0.1c0,0,0,0,0,0c0,0,0-0.1,0-0.1v0c0-0.1,0-0.1,0.1-0.2l2.9-4H281.2z"/>
	<path style="&st1;" d="M286.9,300.5c0-0.1,0.1-0.2,0.2-0.2c0.1,0,0.2,0.1,0.2,0.2v0.2c0,0.1-0.1,0.3-0.2,0.3
		c-0.1,0-0.2-0.1-0.2-0.3V300.5z M286.9,302.1c0-0.1,0.1-0.2,0.2-0.2c0.1,0,0.2,0.1,0.2,0.2v4.4c0,0.1-0.1,0.2-0.2,0.2
		c-0.1,0-0.2-0.1-0.2-0.2V302.1z"/>
	<path style="&st1;" d="M293.2,303.8c0-0.8-0.7-1.5-1.5-1.5c-0.8,0-1.5,0.7-1.5,1.5v2.7v0c0,0,0,0.1-0.1,0.1c0,0.1-0.1,0.1-0.2,0.1
		h-0.1c-0.1,0-0.1-0.1-0.2-0.1c0,0,0,0,0,0c0,0,0,0,0,0v-0.1v-2.7v-0.1v-1.7c0-0.1,0.1-0.2,0.2-0.2c0.1,0,0.2,0.1,0.2,0.2v0.5
		c0.4-0.4,0.9-0.7,1.5-0.7c1.1,0,2,0.9,2,2v2.7c0,0.1-0.1,0.2-0.2,0.2s-0.2-0.1-0.2-0.2V303.8z"/>
	<path style="&st1;" d="M300.1,306.3c0,1.3-1,2.3-2.3,2.3c-0.4,0-0.7-0.1-1-0.2c-0.1-0.1-0.2-0.2-0.1-0.3c0.1-0.1,0.2-0.2,0.3-0.1
		c0.2,0.1,0.5,0.2,0.8,0.2c1,0,1.8-0.8,1.8-1.8v-0.6c-0.4,0.6-1.1,1-1.8,1c-1.3,0-2.3-1.1-2.3-2.4c0-1.3,1-2.4,2.3-2.4
		c0.7,0,1.4,0.4,1.8,1v-0.7c0-0.1,0.1-0.2,0.2-0.2c0.1,0,0.2,0.1,0.2,0.2V306.3z M299.6,304.2c0-1.1-0.8-1.9-1.8-1.9
		c-1,0-1.8,0.9-1.8,1.9c0,1.1,0.8,2,1.8,2C298.8,306.2,299.6,305.3,299.6,304.2z"/>
	<path style="&st1;" d="M305.4,300.5c0-0.1,0.1-0.2,0.2-0.2c0.1,0,0.2,0.1,0.2,0.2v0.2c0,0.1-0.1,0.3-0.2,0.3
		c-0.1,0-0.2-0.1-0.2-0.3V300.5z M305.4,302.1c0-0.1,0.1-0.2,0.2-0.2c0.1,0,0.2,0.1,0.2,0.2v4.4c0,0.1-0.1,0.2-0.2,0.2
		c-0.1,0-0.2-0.1-0.2-0.2V302.1z"/>
	<path style="&st1;" d="M311.7,303.8c0-0.8-0.7-1.5-1.5-1.5c-0.8,0-1.5,0.7-1.5,1.5v2.7v0c0,0,0,0.1,0,0.1c0,0.1-0.1,0.1-0.2,0.1
		h-0.1c-0.1,0-0.1-0.1-0.2-0.1c0,0,0,0,0,0c0,0,0,0,0,0v-0.1v-2.7v-0.1v-1.7c0-0.1,0.1-0.2,0.2-0.2c0.1,0,0.2,0.1,0.2,0.2v0.5
		c0.4-0.4,0.9-0.7,1.5-0.7c1.1,0,2,0.9,2,2v2.7c0,0.1-0.1,0.2-0.2,0.2s-0.2-0.1-0.2-0.2V303.8z"/>
	<path style="&st1;" d="M316,302.1c0,0.1-0.1,0.2-0.2,0.2h-0.6v3.6c0,0.2,0.2,0.4,0.4,0.4s0.2,0.1,0.2,0.2c0,0.1-0.1,0.2-0.2,0.2
		c-0.5,0-0.9-0.4-0.9-0.8v-3.6h-0.6c-0.2,0-0.2-0.1-0.2-0.2s0-0.2,0.2-0.2h0.6V300c0-0.1,0.1-0.2,0.2-0.2c0.1,0,0.3,0.1,0.3,0.2v1.8
		h0.6C315.9,301.8,316,301.9,316,302.1z"/>
	<path style="&st1;" d="M320.3,301.8c1.3,0,2.3,1.1,2.3,2.4s-1,2.4-2.3,2.4c-1.3,0-2.3-1.1-2.3-2.4S319,301.8,320.3,301.8z
		 M320.3,306.2c1,0,1.8-0.9,1.8-2c0-1.1-0.8-2-1.8-2c-1,0-1.8,0.9-1.8,2C318.4,305.4,319.3,306.2,320.3,306.2z"/>
</g>
<g>
	<path style="&st1;" d="M250.3,331.5c0-0.8-0.7-1.5-1.5-1.5c-0.8,0-1.5,0.7-1.5,1.5v2.7v0c0,0,0,0,0,0v0c0,0.1-0.1,0.1-0.1,0.1
		c0,0-0.1,0-0.1,0h0h0c0,0,0,0,0,0c0,0,0,0-0.1,0c0,0,0,0,0,0l0,0c0,0,0,0,0,0c0,0,0,0,0,0c0,0,0,0,0,0c0,0,0,0,0,0v0v0v-2.7
		c0-0.8-0.7-1.5-1.5-1.5c-0.8,0-1.5,0.7-1.5,1.5v2.7c0,0.1,0,0.1-0.1,0.2c0,0,0,0-0.1,0c0,0,0,0,0,0h0h0c-0.1,0-0.2-0.1-0.2-0.2v0
		v-2.7v-0.1v-1.7c0-0.1,0.1-0.2,0.2-0.2c0.1,0,0.2,0.1,0.2,0.2v0.5c0.4-0.4,0.9-0.7,1.5-0.7c0.8,0,1.4,0.4,1.7,1c0.4-0.6,1-1,1.8-1
		c1.1,0,2,0.9,2,2v2.7c0,0.1-0.1,0.2-0.2,0.2c-0.1,0-0.2-0.1-0.2-0.2V331.5z"/>
	<path style="&st1;" d="M252.2,329.7c0-0.1,0.1-0.2,0.2-0.2c0.1,0,0.2,0.1,0.2,0.2v2.7c0,0.8,0.7,1.5,1.5,1.5c0.8,0,1.5-0.7,1.5-1.5
		v-2.7c0,0,0-0.1,0-0.1c0,0,0,0,0,0c0,0,0,0,0,0c0,0,0.1,0,0.1-0.1h0c0,0,0,0,0,0h0h0c0,0,0.1,0,0.1,0.1c0,0,0,0,0.1,0.1
		c0,0,0,0.1,0,0.1v2.7v0.1v1.5c0,1.3-1,2.3-2.3,2.3c-0.4,0-0.7-0.1-1-0.2c-0.1-0.1-0.2-0.2-0.1-0.3c0.1-0.1,0.2-0.1,0.3-0.1
		c0.2,0.1,0.5,0.2,0.8,0.2c1,0,1.8-0.8,1.8-1.8v-0.3c-0.4,0.4-0.9,0.7-1.5,0.7c-1.1,0-2-0.9-2-2V329.7z"/>
	<path style="&st1;" d="M261.1,331.9c0-1.4,1.1-2.4,2.5-2.4c0.6,0,1.1,0.2,1.6,0.5c0.1,0.1,0.1,0.2,0,0.3c-0.1,0.1-0.2,0.1-0.3,0
		c-0.3-0.3-0.8-0.4-1.3-0.4c-1.1,0-2,0.9-2,2c0,1.1,0.9,2,2,2c0.5,0,0.9-0.2,1.3-0.4c0.1-0.1,0.2,0,0.3,0c0.1,0.1,0.1,0.3,0,0.3
		c-0.4,0.3-1,0.5-1.5,0.5C262.3,334.4,261.1,333.3,261.1,331.9z"/>
	<path style="&st1;" d="M271.3,329.7v4.4c0,0.1-0.1,0.2-0.2,0.2s-0.2-0.1-0.2-0.2v-0.7c-0.4,0.6-1.1,1-1.8,1c-1.3,0-2.3-1.1-2.3-2.4
		c0-1.3,1-2.4,2.3-2.4c0.7,0,1.4,0.4,1.8,1v-0.7c0-0.1,0.1-0.2,0.2-0.2S271.3,329.6,271.3,329.7z M270.8,332c0-1.1-0.8-2-1.8-2
		c-1,0-1.8,0.9-1.8,2s0.8,2,1.8,2C270,333.9,270.8,333.1,270.8,332z"/>
	<path style="&st1;" d="M274.8,334.4c0,0-0.1-0.1-0.1-0.1l-1.8-4.4c0-0.1,0-0.3,0.1-0.3c0.1,0,0.3,0,0.3,0.1l1.6,3.9l1.6-3.9
		c0-0.1,0.2-0.2,0.3-0.1c0.1,0,0.2,0.2,0.1,0.3l-1.8,4.3c0,0,0,0.1-0.1,0.1c0,0-0.1,0.1-0.2,0.1
		C274.9,334.4,274.9,334.4,274.8,334.4C274.8,334.4,274.8,334.4,274.8,334.4C274.8,334.4,274.8,334.4,274.8,334.4z"/>
	<path style="&st1;" d="M279,328.1c0-0.1,0.1-0.2,0.2-0.2c0.1,0,0.2,0.1,0.2,0.2v0.2c0,0.1-0.1,0.3-0.2,0.3c-0.1,0-0.2-0.1-0.2-0.3
		V328.1z M279,329.7c0-0.1,0.1-0.2,0.2-0.2c0.1,0,0.2,0.1,0.2,0.2v4.4c0,0.1-0.1,0.2-0.2,0.2c-0.1,0-0.2-0.1-0.2-0.2V329.7z"/>
	<path style="&st1;" d="M283.5,329.7c0,0.1-0.1,0.2-0.2,0.2h-0.6v3.6c0,0.2,0.2,0.4,0.4,0.4c0.1,0,0.2,0.1,0.2,0.2
		c0,0.1-0.1,0.2-0.2,0.2c-0.5,0-0.9-0.4-0.9-0.8V330h-0.6c-0.2,0-0.2-0.1-0.2-0.2s0-0.2,0.2-0.2h0.6v-1.8c0-0.1,0.1-0.2,0.2-0.2
		c0.1,0,0.3,0.1,0.3,0.2v1.8h0.6C283.4,329.5,283.5,329.6,283.5,329.7z"/>
	<path style="&st1;" d="M285.8,328.1c0-0.1,0.1-0.2,0.2-0.2c0.1,0,0.2,0.1,0.2,0.2v0.2c0,0.1-0.1,0.3-0.2,0.3
		c-0.1,0-0.2-0.1-0.2-0.3V328.1z M285.8,329.7c0-0.1,0.1-0.2,0.2-0.2c0.1,0,0.2,0.1,0.2,0.2v4.4c0,0.1-0.1,0.2-0.2,0.2
		c-0.1,0-0.2-0.1-0.2-0.2V329.7z"/>
	<path style="&st1;" d="M288.3,332c0-1.4,1.1-2.5,2.4-2.5c1.3,0,2.3,1,2.4,2.3v0v0c0,0.1-0.1,0.2-0.2,0.2h-4c0,1.1,0.9,1.9,1.9,1.9
		c0.6,0,1.2-0.3,1.6-0.9c0.1-0.1,0.2-0.1,0.3-0.1c0.1,0.1,0.1,0.2,0.1,0.3c-0.4,0.7-1.1,1.1-2,1.1
		C289.3,334.4,288.3,333.3,288.3,332z M288.8,331.6h3.7c-0.2-0.9-0.9-1.6-1.8-1.6C289.7,330,289,330.6,288.8,331.6z"/>
	<path style="&st1;" d="M294.4,333.4c0.1-0.1,0.2-0.1,0.3,0c0.3,0.2,0.9,0.6,1.5,0.6c0.4,0,0.7-0.1,0.9-0.3c0.2-0.2,0.4-0.4,0.4-0.6
		c0-0.2-0.1-0.4-0.4-0.6c-0.2-0.2-0.6-0.3-1-0.4l0,0c-0.4-0.1-0.8-0.2-1.1-0.4c-0.3-0.2-0.5-0.5-0.5-0.9c0-0.4,0.2-0.7,0.5-1
		c0.3-0.2,0.7-0.3,1.2-0.3c0.6,0,1.1,0.3,1.5,0.5c0.1,0.1,0.1,0.2,0.1,0.3c-0.1,0.1-0.2,0.1-0.3,0.1c-0.4-0.2-0.7-0.5-1.2-0.5
		c-0.4,0-0.7,0.1-0.9,0.3c-0.2,0.2-0.3,0.4-0.3,0.6c0,0.2,0.1,0.3,0.3,0.5c0.2,0.2,0.5,0.3,1,0.3h0c0.5,0.1,0.8,0.2,1.2,0.4
		c0.3,0.2,0.5,0.6,0.5,1s-0.2,0.7-0.6,1c-0.3,0.2-0.7,0.4-1.2,0.4c-0.8,0-1.4-0.4-1.8-0.7C294.3,333.6,294.3,333.5,294.4,333.4z"/>
</g>
<g>
	<path style="&st1;" d="M225.7,358.5c0-0.1,0.1-0.2,0.2-0.2c0.1,0,0.2,0.1,0.2,0.2v0.2c0,0.1-0.1,0.3-0.2,0.3
		c-0.1,0-0.2-0.1-0.2-0.3V358.5z M225.7,360.1c0-0.1,0.1-0.2,0.2-0.2c0.1,0,0.2,0.1,0.2,0.2v4.4c0,0.1-0.1,0.2-0.2,0.2
		c-0.1,0-0.2-0.1-0.2-0.2V360.1z"/>
	<path style="&st1;" d="M235.4,363.8c-0.4,0.6-1.1,1-1.9,1c-1.3,0-2.4-1.1-2.4-2.4c0-1.4,1-2.5,2.4-2.5c0.8,0,1.4,0.4,1.9,1V358
		c0-0.1,0.1-0.2,0.2-0.2c0.1,0,0.2,0.1,0.2,0.2v4.2v0.1v2.2c0,0.1-0.1,0.2-0.2,0.2c-0.1,0-0.2-0.1-0.2-0.2V363.8z M235.4,362.4v-0.2
		c0-1-0.9-1.9-1.9-1.9c-1,0-1.9,0.9-1.9,2c0,1.1,0.8,1.9,1.9,1.9C234.5,364.3,235.3,363.5,235.4,362.4z"/>
	<path style="&st1;" d="M240.1,359.9c1.3,0,2.3,1.1,2.3,2.4c0,1.3-1,2.4-2.3,2.4c-1.3,0-2.3-1.1-2.3-2.4
		C237.8,361,238.9,359.9,240.1,359.9z M240.1,364.3c1,0,1.8-0.9,1.8-2c0-1.1-0.8-2-1.8-2c-1,0-1.8,0.9-1.8,2
		C238.3,363.4,239.1,364.3,240.1,364.3z"/>
	<path style="&st1;" d="M250.8,361.9c0-0.8-0.7-1.5-1.5-1.5c-0.8,0-1.5,0.7-1.5,1.5v2.7v0c0,0,0,0.1-0.1,0.1c0,0.1-0.1,0.1-0.2,0.1
		h-0.1c-0.1,0-0.1-0.1-0.2-0.1c0,0,0,0,0,0s0,0,0,0v-0.1v-2.7v-0.1v-1.7c0-0.1,0.1-0.2,0.2-0.2c0.1,0,0.2,0.1,0.2,0.2v0.5
		c0.4-0.4,0.9-0.7,1.5-0.7c1.1,0,2,0.9,2,2v2.7c0,0.1-0.1,0.2-0.2,0.2s-0.2-0.1-0.2-0.2V361.9z"/>
	<path style="&st1;" d="M255.5,359.9c1.3,0,2.3,1.1,2.3,2.4c0,1.3-1,2.4-2.3,2.4c-1.3,0-2.3-1.1-2.3-2.4
		C253.2,361,254.2,359.9,255.5,359.9z M255.5,364.3c1,0,1.8-0.9,1.8-2c0-1.1-0.8-2-1.8-2c-1,0-1.8,0.9-1.8,2
		C253.7,363.4,254.5,364.3,255.5,364.3z"/>
	<path style="&st1;" d="M261.2,360.1c0,0.1-0.1,0.2-0.2,0.2h-0.6v3.6c0,0.2,0.2,0.4,0.4,0.4c0.1,0,0.2,0.1,0.2,0.2s-0.1,0.2-0.2,0.2
		c-0.5,0-0.9-0.4-0.9-0.8v-3.6h-0.6c-0.2,0-0.2-0.1-0.2-0.2c0-0.1,0-0.2,0.2-0.2h0.6v-1.8c0-0.1,0.1-0.2,0.2-0.2
		c0.1,0,0.3,0.1,0.3,0.2v1.8h0.6C261.1,359.9,261.2,360,261.2,360.1z"/>
	<path style="&st1;" d="M270,361.9c0-0.8-0.7-1.5-1.5-1.5c-0.8,0-1.5,0.7-1.5,1.5v2.7v0c0,0,0,0.1-0.1,0.1c0,0.1-0.1,0.1-0.2,0.1
		h-0.1c-0.1,0-0.1-0.1-0.2-0.1c0,0,0,0,0,0s0,0,0,0v-0.1v-2.7v-0.1v-1.7c0-0.1,0.1-0.2,0.2-0.2c0.1,0,0.2,0.1,0.2,0.2v0.5
		c0.4-0.4,0.9-0.7,1.5-0.7c1.1,0,2,0.9,2,2v2.7c0,0.1-0.1,0.2-0.2,0.2s-0.2-0.1-0.2-0.2V361.9z"/>
	<path style="&st1;" d="M272.3,362.3c0-1.4,1.1-2.5,2.4-2.5c1.3,0,2.3,1,2.4,2.3v0v0c0,0.1-0.1,0.2-0.2,0.2h-4
		c0,1.1,0.9,1.9,1.9,1.9c0.6,0,1.2-0.3,1.6-0.9c0.1-0.1,0.2-0.1,0.3-0.1c0.1,0.1,0.1,0.2,0.1,0.3c-0.4,0.7-1.1,1.1-2,1.1
		C273.3,364.8,272.3,363.7,272.3,362.3z M272.8,361.9h3.7c-0.2-0.9-0.9-1.6-1.8-1.6C273.7,360.4,273,361,272.8,361.9z"/>
	<path style="&st1;" d="M278.4,362.3c0-1.4,1.1-2.5,2.4-2.5c1.3,0,2.3,1,2.4,2.3v0v0c0,0.1-0.1,0.2-0.2,0.2h-4
		c0,1.1,0.9,1.9,1.9,1.9c0.6,0,1.2-0.3,1.6-0.9c0.1-0.1,0.2-0.1,0.3-0.1c0.1,0.1,0.1,0.2,0.1,0.3c-0.4,0.7-1.1,1.1-2,1.1
		C279.4,364.8,278.4,363.7,278.4,362.3z M278.9,361.9h3.7c-0.2-0.9-0.9-1.6-1.8-1.6C279.8,360.4,279.1,361,278.9,361.9z"/>
	<path style="&st1;" d="M288.7,363.8c-0.4,0.6-1.1,1-1.9,1c-1.3,0-2.4-1.1-2.4-2.4c0-1.4,1-2.5,2.4-2.5c0.8,0,1.4,0.4,1.9,1V358
		c0-0.1,0.1-0.2,0.2-0.2c0.1,0,0.2,0.1,0.2,0.2v4.2v0.1v2.2c0,0.1-0.1,0.2-0.2,0.2c-0.1,0-0.2-0.1-0.2-0.2V363.8z M288.7,362.4v-0.2
		c0-1-0.9-1.9-1.9-1.9c-1,0-1.9,0.9-1.9,2c0,1.1,0.8,1.9,1.9,1.9C287.9,364.3,288.7,363.5,288.7,362.4z"/>
</g>
<g>
	<path style="&st1;" d="M232.2,393c0-0.1,0.1-0.2,0.2-0.2c0.1,0,0.2,0.1,0.2,0.2v2.7c0,0.8,0.7,1.5,1.5,1.5c0.8,0,1.5-0.7,1.5-1.5
		V393c0,0,0-0.1,0-0.1c0,0,0,0,0,0c0,0,0,0,0,0c0,0,0.1,0,0.1-0.1h0c0,0,0,0,0,0h0h0c0,0,0.1,0,0.1,0.1c0,0,0,0,0.1,0.1
		c0,0,0,0.1,0,0.1v2.7v0.1v1.5c0,1.3-1,2.3-2.3,2.3c-0.4,0-0.7-0.1-1-0.2c-0.1-0.1-0.2-0.2-0.1-0.3c0.1-0.1,0.2-0.2,0.3-0.1
		c0.2,0.1,0.5,0.2,0.8,0.2c1,0,1.8-0.8,1.8-1.8V397c-0.4,0.4-0.9,0.7-1.5,0.7c-1.1,0-2-0.9-2-2V393z"/>
	<path style="&st1;" d="M240.3,392.8c1.3,0,2.3,1.1,2.3,2.4c0,1.3-1,2.4-2.3,2.4c-1.3,0-2.3-1.1-2.3-2.4
		C238,393.9,239,392.8,240.3,392.8z M240.3,397.2c1,0,1.8-0.9,1.8-2s-0.8-2-1.8-2c-1,0-1.8,0.9-1.8,2S239.3,397.2,240.3,397.2z"/>
	<path style="&st1;" d="M244.2,393c0-0.1,0.1-0.2,0.2-0.2s0.2,0.1,0.2,0.2v2.7c0,0.8,0.7,1.5,1.5,1.5c0.8,0,1.5-0.7,1.5-1.5V393
		c0-0.1,0.1-0.2,0.2-0.2c0.1,0,0.2,0.1,0.2,0.2v2.7c0,1.1-0.9,2-2,2c-1.1,0-2-0.9-2-2V393z"/>
	<path style="&st1;" d="M250.4,393c0-0.1,0.1-0.2,0.2-0.2c0.1,0,0.2,0.1,0.2,0.2v1.1c0,0,0-0.1,0.1-0.1c0.4-0.6,1-1.2,2-1.2
		c0.1,0,0.2,0.1,0.2,0.2c0,0.1-0.1,0.2-0.2,0.2c-0.6,0-1.1,0.4-1.4,0.8c-0.3,0.4-0.5,0.9-0.6,1.1c0,0,0,0.1,0,0.1v2.1
		c0,0.1-0.1,0.2-0.2,0.2c-0.1,0-0.2-0.1-0.2-0.2V393z"/>
	<path style="&st1;" d="M259.4,397.6c0,0-0.1-0.1-0.1-0.1l-1.8-4.4c0-0.1,0-0.3,0.1-0.3c0.1,0,0.3,0,0.3,0.1l1.6,3.9l1.6-3.9
		c0-0.1,0.2-0.2,0.3-0.1c0.1,0,0.2,0.2,0.1,0.3l-1.8,4.3c0,0,0,0.1-0.1,0.1c0,0-0.1,0.1-0.2,0.1
		C259.5,397.7,259.5,397.7,259.4,397.6C259.5,397.7,259.5,397.7,259.4,397.6C259.4,397.7,259.4,397.6,259.4,397.6z"/>
	<path style="&st1;" d="M263,395.2c0-1.4,1.1-2.5,2.4-2.5c1.3,0,2.3,1,2.4,2.3v0v0c0,0.1-0.1,0.2-0.2,0.2h-4c0,1.1,0.9,1.9,1.9,1.9
		c0.6,0,1.2-0.3,1.6-0.9c0.1-0.1,0.2-0.1,0.3-0.1c0.1,0.1,0.1,0.2,0.1,0.3c-0.4,0.7-1.1,1.1-2,1.1C264.1,397.7,263,396.6,263,395.2z
		 M263.5,394.8h3.7c-0.2-0.9-0.9-1.6-1.8-1.6C264.5,393.3,263.7,393.9,263.5,394.8z"/>
	<path style="&st1;" d="M269.5,391.4c0-0.1,0.1-0.2,0.2-0.2c0.1,0,0.2,0.1,0.2,0.2v0.2c0,0.1-0.1,0.3-0.2,0.3
		c-0.1,0-0.2-0.1-0.2-0.3V391.4z M269.5,393c0-0.1,0.1-0.2,0.2-0.2c0.1,0,0.2,0.1,0.2,0.2v4.4c0,0.1-0.1,0.2-0.2,0.2
		c-0.1,0-0.2-0.1-0.2-0.2V393z"/>
	<path style="&st1;" d="M275.8,394.8c0-0.8-0.7-1.5-1.5-1.5c-0.8,0-1.5,0.7-1.5,1.5v2.7v0c0,0,0,0.1-0.1,0.1c0,0.1-0.1,0.1-0.2,0.1
		h-0.1c-0.1,0-0.1-0.1-0.2-0.1c0,0,0,0,0,0s0,0,0,0v-0.1v-2.7v-0.1V393c0-0.1,0.1-0.2,0.2-0.2c0.1,0,0.2,0.1,0.2,0.2v0.5
		c0.4-0.4,0.9-0.7,1.5-0.7c1.1,0,2,0.9,2,2v2.7c0,0.1-0.1,0.2-0.2,0.2s-0.2-0.1-0.2-0.2V394.8z"/>
	<path style="&st1;" d="M281,395.2c0-1.4,1.1-2.4,2.5-2.4c0.6,0,1.1,0.2,1.6,0.5c0.1,0.1,0.1,0.2,0,0.3c-0.1,0.1-0.2,0.1-0.3,0
		c-0.3-0.3-0.8-0.4-1.3-0.4c-1.1,0-2,0.9-2,2c0,1.1,0.9,2,2,2c0.5,0,0.9-0.2,1.3-0.4c0.1-0.1,0.2,0,0.3,0c0.1,0.1,0.1,0.3-0.1,0.4
		c-0.4,0.3-1,0.5-1.5,0.5C282.2,397.7,281,396.6,281,395.2z"/>
	<path style="&st1;" d="M287.1,393c0-0.1,0.1-0.2,0.2-0.2c0.1,0,0.2,0.1,0.2,0.2v1.1c0,0,0-0.1,0.1-0.1c0.4-0.6,1-1.2,2-1.2
		c0.1,0,0.2,0.1,0.2,0.2c0,0.1-0.1,0.2-0.2,0.2c-0.6,0-1.1,0.4-1.4,0.8c-0.3,0.4-0.5,0.9-0.6,1.1c0,0,0,0.1,0,0.1v2.1
		c0,0.1-0.1,0.2-0.2,0.2c-0.1,0-0.2-0.1-0.2-0.2V393z"/>
	<path style="&st1;" d="M293.3,392.8c1.3,0,2.3,1.1,2.3,2.4c0,1.3-1,2.4-2.3,2.4c-1.3,0-2.3-1.1-2.3-2.4
		C291,393.9,292,392.8,293.3,392.8z M293.3,397.2c1,0,1.8-0.9,1.8-2s-0.8-2-1.8-2c-1,0-1.8,0.9-1.8,2S292.3,397.2,293.3,397.2z"/>
	<path style="&st1;" d="M298.7,397.6c0,0-0.1-0.1-0.1-0.1l-1.8-4.4c-0.1-0.1,0-0.3,0.1-0.3c0.1,0,0.3,0,0.3,0.1l1.6,3.9l1.1-2.7
		c0-0.1,0.1-0.1,0.2-0.1c0.1,0,0.2,0.1,0.2,0.1l1.1,2.7l1.6-3.9c0-0.1,0.2-0.2,0.3-0.1c0.1,0,0.2,0.2,0.1,0.3l-1.8,4.4
		c0,0,0,0.1-0.1,0.1c0,0-0.1,0.1-0.1,0.1h0h0c-0.1,0-0.2-0.1-0.2-0.2l0,0l-1.1-2.7l-1.1,2.7c0,0,0,0,0,0c0,0.1-0.1,0.2-0.2,0.2
		C298.8,397.7,298.8,397.7,298.7,397.6C298.7,397.7,298.7,397.6,298.7,397.6z"/>
	<path style="&st1;" d="M309.2,394.8c0-0.8-0.7-1.5-1.5-1.5c-0.8,0-1.5,0.7-1.5,1.5v2.7v0c0,0,0,0.1-0.1,0.1c0,0.1-0.1,0.1-0.2,0.1
		h-0.1c-0.1,0-0.1-0.1-0.2-0.1c0,0,0,0,0,0s0,0,0,0v-0.1v-2.7v-0.1V393c0-0.1,0.1-0.2,0.2-0.2c0.1,0,0.2,0.1,0.2,0.2v0.5
		c0.4-0.4,0.9-0.7,1.5-0.7c1.1,0,2,0.9,2,2v2.7c0,0.1-0.1,0.2-0.2,0.2s-0.2-0.1-0.2-0.2V394.8z"/>
</g>
<g>
	<path style="&st1;" d="M232.3,423.6c0-0.8-0.7-1.5-1.5-1.5c-0.8,0-1.5,0.7-1.5,1.5v2.7v0c0,0,0,0,0,0v0c0,0.1-0.1,0.1-0.1,0.1
		c0,0-0.1,0-0.1,0h0h0c0,0,0,0,0,0c0,0,0,0-0.1,0c0,0,0,0,0,0l0,0c0,0,0,0,0,0c0,0,0,0,0,0c0,0,0,0,0,0c0,0,0,0,0,0v0v0v-2.7
		c0-0.8-0.7-1.5-1.5-1.5c-0.8,0-1.5,0.7-1.5,1.5v2.7c0,0.1,0,0.2-0.1,0.2c0,0,0,0-0.1,0c0,0,0,0,0,0h0h0c-0.1,0-0.2-0.1-0.2-0.2
		v-0.1v-2.7v-0.1v-1.7c0-0.1,0.1-0.2,0.2-0.2c0.1,0,0.2,0.1,0.2,0.2v0.5c0.4-0.4,0.9-0.7,1.5-0.7c0.8,0,1.4,0.4,1.7,1
		c0.4-0.6,1-1,1.8-1c1.1,0,2,0.9,2,2v2.7c0,0.1-0.1,0.2-0.2,0.2c-0.1,0-0.2-0.1-0.2-0.2V423.6z"/>
	<path style="&st1;" d="M234.2,421.9c0-0.1,0.1-0.2,0.2-0.2c0.1,0,0.2,0.1,0.2,0.2v2.7c0,0.8,0.7,1.5,1.5,1.5c0.8,0,1.5-0.7,1.5-1.5
		v-2.7c0,0,0-0.1,0-0.1c0,0,0,0,0,0c0,0,0,0,0,0c0,0,0.1-0.1,0.1-0.1h0c0,0,0,0,0,0h0h0c0,0,0.1,0,0.1,0c0,0,0,0,0.1,0.1
		c0,0,0,0.1,0,0.1v2.7v0.1v1.5c0,1.3-1,2.3-2.3,2.3c-0.4,0-0.7-0.1-1-0.2c-0.1-0.1-0.2-0.2-0.1-0.3c0.1-0.1,0.2-0.2,0.3-0.1
		c0.2,0.1,0.5,0.2,0.8,0.2c1,0,1.8-0.8,1.8-1.8v-0.3c-0.4,0.4-0.9,0.7-1.5,0.7c-1.1,0-2-0.9-2-2V421.9z"/>
	<path style="&st1;" d="M250.5,423.6c0-0.8-0.7-1.5-1.5-1.5c-0.8,0-1.5,0.7-1.5,1.5v2.7v0c0,0,0,0,0,0v0c0,0.1-0.1,0.1-0.1,0.1
		c0,0-0.1,0-0.1,0h0h0c0,0,0,0,0,0c0,0,0,0-0.1,0c0,0,0,0,0,0l0,0c0,0,0,0,0,0c0,0,0,0,0,0c0,0,0,0,0,0c0,0,0,0,0,0v0v0v-2.7
		c0-0.8-0.7-1.5-1.5-1.5c-0.8,0-1.5,0.7-1.5,1.5v2.7c0,0.1,0,0.2-0.1,0.2c0,0,0,0-0.1,0c0,0,0,0,0,0h0h0c-0.1,0-0.2-0.1-0.2-0.2
		v-0.1v-2.7v-0.1v-1.7c0-0.1,0.1-0.2,0.2-0.2c0.1,0,0.2,0.1,0.2,0.2v0.5c0.4-0.4,0.9-0.7,1.5-0.7c0.8,0,1.4,0.4,1.7,1
		c0.4-0.6,1-1,1.8-1c1.1,0,2,0.9,2,2v2.7c0,0.1-0.1,0.2-0.2,0.2c-0.1,0-0.2-0.1-0.2-0.2V423.6z"/>
	<path style="&st1;" d="M255.1,421.6c1.3,0,2.3,1.1,2.3,2.4c0,1.3-1,2.4-2.3,2.4c-1.3,0-2.3-1.1-2.3-2.4
		C252.8,422.7,253.8,421.6,255.1,421.6z M255.1,426c1,0,1.8-0.9,1.8-2c0-1.1-0.8-2-1.8-2c-1,0-1.8,0.9-1.8,2
		C253.3,425.2,254.1,426,255.1,426z"/>
	<path style="&st1;" d="M259,421.9c0-0.1,0.1-0.2,0.2-0.2s0.2,0.1,0.2,0.2v2.7c0,0.8,0.7,1.5,1.5,1.5c0.8,0,1.5-0.7,1.5-1.5v-2.7
		c0-0.1,0.1-0.2,0.2-0.2c0.1,0,0.2,0.1,0.2,0.2v2.7c0,1.1-0.9,2-2,2c-1.1,0-2-0.9-2-2V421.9z"/>
	<path style="&st1;" d="M266.9,421.9c0,0.1-0.1,0.2-0.2,0.2h-0.6v3.6c0,0.2,0.2,0.4,0.4,0.4c0.1,0,0.2,0.1,0.2,0.2s-0.1,0.2-0.2,0.2
		c-0.5,0-0.9-0.4-0.9-0.8v-3.6H265c-0.2,0-0.2-0.1-0.2-0.2c0-0.1,0-0.2,0.2-0.2h0.6v-1.8c0-0.1,0.1-0.2,0.2-0.2
		c0.1,0,0.3,0.1,0.3,0.2v1.8h0.6C266.8,421.6,266.9,421.7,266.9,421.9z"/>
	<path style="&st1;" d="M272.6,423.6c0-0.9-0.7-1.4-1.6-1.4c-0.8,0-1.5,0.6-1.5,1.4v2.7v0c0,0,0,0,0,0c0,0,0,0,0,0
		c0,0.1-0.1,0.1-0.1,0.1c0,0,0,0,0,0h0h0c-0.1,0-0.1,0-0.2-0.1c0,0,0,0,0-0.1c0,0,0,0,0-0.1v-2.7v-0.1v-3.7c0-0.1,0.1-0.2,0.2-0.2
		c0.1,0,0.2,0.1,0.2,0.2v2.6c0.4-0.4,0.9-0.7,1.5-0.7c1.1,0,2,0.8,2,1.9v2.7c0,0.1-0.1,0.2-0.2,0.2c-0.1,0-0.2-0.1-0.2-0.2V423.6z"
		/>
</g>
<g>
	<path style="&st1;" d="M237.9,450.8c0-1.4,1.1-2.4,2.5-2.4c0.6,0,1.1,0.2,1.6,0.5c0.1,0.1,0.1,0.2,0,0.3c-0.1,0.1-0.2,0.1-0.3,0
		c-0.3-0.3-0.8-0.4-1.3-0.4c-1.1,0-2,0.9-2,2c0,1.1,0.9,2,2,2c0.5,0,0.9-0.2,1.3-0.4c0.1-0.1,0.2,0,0.3,0c0.1,0.1,0.1,0.3-0.1,0.4
		c-0.4,0.3-1,0.5-1.5,0.5C239,453.3,237.9,452.2,237.9,450.8z"/>
	<path style="&st1;" d="M248.1,448.6v4.4c0,0.1-0.1,0.2-0.2,0.2s-0.2-0.1-0.2-0.2v-0.7c-0.4,0.6-1.1,1-1.8,1c-1.3,0-2.3-1.1-2.3-2.4
		c0-1.3,1-2.4,2.3-2.4c0.8,0,1.4,0.4,1.8,1v-0.7c0-0.1,0.1-0.2,0.2-0.2S248.1,448.5,248.1,448.6z M247.6,450.8c0-1.1-0.8-2-1.8-2
		c-1,0-1.8,0.9-1.8,2c0,1.1,0.8,2,1.8,2C246.8,452.8,247.6,451.9,247.6,450.8z"/>
	<path style="&st1;" d="M253.6,450.4c0-0.8-0.7-1.5-1.5-1.5c-0.8,0-1.5,0.7-1.5,1.5v2.7v0c0,0,0,0.1-0.1,0.1c0,0.1-0.1,0.1-0.2,0.1
		h-0.1c-0.1,0-0.1-0.1-0.2-0.1c0,0,0,0,0,0s0,0,0,0V453v-2.7v-0.1v-1.7c0-0.1,0.1-0.2,0.2-0.2c0.1,0,0.2,0.1,0.2,0.2v0.5
		c0.4-0.4,0.9-0.7,1.5-0.7c1.1,0,2,0.9,2,2v2.7c0,0.1-0.1,0.2-0.2,0.2s-0.2-0.1-0.2-0.2V450.4z"/>
	<path style="&st1;" d="M258.8,450.8c0-1.4,1.1-2.4,2.5-2.4c0.6,0,1.1,0.2,1.6,0.5c0.1,0.1,0.1,0.2,0,0.3c-0.1,0.1-0.2,0.1-0.3,0
		c-0.3-0.3-0.8-0.4-1.3-0.4c-1.1,0-2,0.9-2,2c0,1.1,0.9,2,2,2c0.5,0,0.9-0.2,1.3-0.4c0.1-0.1,0.2,0,0.3,0c0.1,0.1,0.1,0.3-0.1,0.4
		c-0.4,0.3-1,0.5-1.5,0.5C260,453.3,258.8,452.2,258.8,450.8z"/>
	<path style="&st1;" d="M268.5,450.3c0-0.9-0.7-1.4-1.6-1.4c-0.8,0-1.5,0.6-1.5,1.4v2.7v0c0,0,0,0,0,0c0,0,0,0,0,0
		c0,0.1-0.1,0.1-0.1,0.1c0,0,0,0,0,0h0h0c-0.1,0-0.1,0-0.2-0.1c0,0,0,0,0-0.1c0,0,0,0,0-0.1v-2.7v-0.1v-3.7c0-0.1,0.1-0.2,0.2-0.2
		c0.1,0,0.2,0.1,0.2,0.2v2.6c0.4-0.4,0.9-0.7,1.5-0.7c1.1,0,2,0.8,2,1.9v2.7c0,0.1-0.1,0.2-0.2,0.2c-0.1,0-0.2-0.1-0.2-0.2V450.3z"
		/>
	<path style="&st1;" d="M270.7,450.8c0-1.4,1.1-2.5,2.4-2.5c1.3,0,2.3,1,2.4,2.3v0v0c0,0.1-0.1,0.2-0.2,0.2h-4
		c0,1.1,0.9,1.9,1.9,1.9c0.6,0,1.2-0.3,1.6-0.9c0.1-0.1,0.2-0.1,0.3-0.1c0.1,0.1,0.1,0.2,0.1,0.3c-0.4,0.7-1.1,1.1-2,1.1
		C271.7,453.3,270.7,452.2,270.7,450.8z M271.2,450.4h3.7c-0.2-0.9-0.9-1.6-1.8-1.6C272.1,448.8,271.4,449.5,271.2,450.4z"/>
	<path style="&st1;" d="M278.5,453.2c0,0-0.1-0.1-0.1-0.1l-1.8-4.4c-0.1-0.1,0-0.3,0.1-0.3c0.1,0,0.3,0,0.3,0.1l1.6,3.9l1.1-2.7
		c0-0.1,0.1-0.2,0.2-0.2c0.1,0,0.2,0.1,0.2,0.2l1.1,2.7l1.6-3.9c0-0.1,0.2-0.2,0.3-0.1c0.1,0,0.2,0.2,0.1,0.3l-1.8,4.4
		c0,0-0.1,0.1-0.1,0.1c0,0-0.1,0-0.1,0h0h0c-0.1,0-0.2-0.1-0.2-0.2l0,0l-1.1-2.7l-1.1,2.7c0,0,0,0,0,0c0,0.1-0.1,0.2-0.2,0.2
		C278.6,453.3,278.6,453.2,278.5,453.2C278.5,453.2,278.5,453.2,278.5,453.2z"/>
	<path style="&st1;" d="M288.1,448.6c0-0.1,0.1-0.2,0.2-0.2c0.1,0,0.2,0.1,0.2,0.2v2.7c0,0.8,0.7,1.5,1.5,1.5c0.8,0,1.5-0.7,1.5-1.5
		v-2.7c0,0,0-0.1,0-0.1c0,0,0,0,0,0c0,0,0,0,0,0c0,0,0.1-0.1,0.1-0.1h0c0,0,0,0,0,0h0h0c0,0,0.1,0,0.1,0c0,0,0,0,0.1,0.1
		c0,0,0,0.1,0,0.1v2.7v0.1v1.5c0,1.3-1,2.3-2.3,2.3c-0.4,0-0.7-0.1-1-0.2c-0.1-0.1-0.2-0.2-0.1-0.3c0.1-0.1,0.2-0.2,0.3-0.1
		c0.2,0.1,0.5,0.2,0.8,0.2c1,0,1.8-0.8,1.8-1.8v-0.3c-0.4,0.4-0.9,0.7-1.5,0.7c-1.1,0-2-0.9-2-2V448.6z"/>
	<path style="&st1;" d="M296.1,448.4c1.3,0,2.3,1.1,2.3,2.4c0,1.3-1,2.4-2.3,2.4c-1.3,0-2.3-1.1-2.3-2.4
		C293.8,449.5,294.9,448.4,296.1,448.4z M296.1,452.8c1,0,1.8-0.9,1.8-2c0-1.1-0.8-2-1.8-2c-1,0-1.8,0.9-1.8,2
		C294.3,451.9,295.1,452.8,296.1,452.8z"/>
	<path style="&st1;" d="M300,448.6c0-0.1,0.1-0.2,0.2-0.2s0.2,0.1,0.2,0.2v2.7c0,0.8,0.7,1.5,1.5,1.5c0.8,0,1.5-0.7,1.5-1.5v-2.7
		c0-0.1,0.1-0.2,0.2-0.2c0.1,0,0.2,0.1,0.2,0.2v2.7c0,1.1-0.9,2-2,2c-1.1,0-2-0.9-2-2V448.6z"/>
	<path style="&st1;" d="M310.9,453.2c0,0-0.1-0.1-0.1-0.1l-1.8-4.4c-0.1-0.1,0-0.3,0.1-0.3c0.1,0,0.3,0,0.3,0.1l1.6,3.9l1.1-2.7
		c0-0.1,0.1-0.2,0.2-0.2c0.1,0,0.2,0.1,0.2,0.2l1.1,2.7l1.6-3.9c0-0.1,0.2-0.2,0.3-0.1c0.1,0,0.2,0.2,0.1,0.3l-1.8,4.4
		c0,0,0,0.1-0.1,0.1c0,0-0.1,0-0.1,0h0h0c-0.1,0-0.2-0.1-0.2-0.2l0,0l-1.1-2.7l-1.1,2.7c0,0,0,0,0,0c0,0.1-0.1,0.2-0.2,0.2
		C311,453.3,311,453.2,310.9,453.2C310.9,453.2,310.9,453.2,310.9,453.2z"/>
</g>
<g>
	<path style="&st1;" d="M225.5,509.5c0-0.1,0.1-0.2,0.2-0.2c0.1,0,0.2,0.1,0.2,0.2v0.2c0,0.1-0.1,0.3-0.2,0.3
		c-0.1,0-0.2-0.1-0.2-0.3V509.5z M225.5,511.1c0-0.1,0.1-0.2,0.2-0.2c0.1,0,0.2,0.1,0.2,0.2v4.4c0,0.1-0.1,0.2-0.2,0.2
		c-0.1,0-0.2-0.1-0.2-0.2V511.1z"/>
	<path style="&st1;" d="M238.3,512.9c0-0.8-0.7-1.5-1.5-1.5c-0.8,0-1.5,0.7-1.5,1.5v2.7v0c0,0,0,0,0,0v0c0,0.1-0.1,0.1-0.1,0.1
		c0,0-0.1,0-0.1,0h0h0c0,0,0,0,0,0c0,0,0,0-0.1,0c0,0,0,0,0,0l0,0c0,0,0,0,0,0c0,0,0,0,0,0c0,0,0,0,0,0c0,0,0,0,0,0v0v0v-2.7
		c0-0.8-0.7-1.5-1.5-1.5c-0.8,0-1.5,0.7-1.5,1.5v2.7c0,0.1,0,0.2-0.1,0.2c0,0,0,0-0.1,0c0,0,0,0,0,0h0h0c-0.1,0-0.2-0.1-0.2-0.2
		v-0.1v-2.7v-0.1v-1.7c0-0.1,0.1-0.2,0.2-0.2c0.1,0,0.2,0.1,0.2,0.2v0.5c0.4-0.4,0.9-0.7,1.5-0.7c0.8,0,1.4,0.4,1.7,1
		c0.4-0.6,1-1,1.8-1c1.1,0,2,0.9,2,2v2.7c0,0.1-0.1,0.2-0.2,0.2c-0.1,0-0.2-0.1-0.2-0.2V512.9z"/>
	<path style="&st1;" d="M244.9,511.1v4.4c0,0.1-0.1,0.2-0.2,0.2s-0.2-0.1-0.2-0.2v-0.7c-0.4,0.6-1.1,1-1.8,1c-1.3,0-2.3-1.1-2.3-2.4
		c0-1.3,1-2.4,2.3-2.4c0.7,0,1.4,0.4,1.8,1v-0.7c0-0.1,0.1-0.2,0.2-0.2S244.9,511,244.9,511.1z M244.5,513.3c0-1.1-0.8-2-1.8-2
		c-1,0-1.8,0.9-1.8,2c0,1.1,0.8,2,1.8,2C243.6,515.3,244.5,514.4,244.5,513.3z"/>
	<path style="&st1;" d="M247,509c0-0.1,0.1-0.2,0.2-0.2c0.1,0,0.2,0.1,0.2,0.2v4.7l2.9-2.9c0.1-0.1,0.2-0.1,0.3,0
		c0.1,0.1,0.1,0.2,0,0.3l-1.9,1.9l1.9,2.3c0.1,0.1,0.1,0.2,0,0.4c0,0-0.1,0-0.2,0c-0.1,0-0.1,0-0.2-0.1l-1.9-2.3l-1,1v1.1
		c0,0.1-0.1,0.2-0.2,0.2c-0.1,0-0.2-0.1-0.2-0.2V509z"/>
	<path style="&st1;" d="M252,513.3c0-1.4,1.1-2.5,2.4-2.5c1.3,0,2.3,1,2.4,2.3v0v0c0,0.1-0.1,0.2-0.2,0.2h-4c0,1.1,0.9,1.9,1.9,1.9
		c0.6,0,1.2-0.3,1.6-0.9c0.1-0.1,0.2-0.1,0.3-0.1c0.1,0.1,0.1,0.2,0.1,0.3c-0.4,0.7-1.1,1.1-2,1.1C253.1,515.8,252,514.7,252,513.3z
		 M252.5,513h3.7c-0.2-0.9-0.9-1.6-1.8-1.6C253.5,511.4,252.7,512,252.5,513z"/>
	<path style="&st1;" d="M268.5,512.9c0-0.8-0.7-1.5-1.5-1.5c-0.8,0-1.5,0.7-1.5,1.5v2.7v0c0,0,0,0,0,0v0c0,0.1-0.1,0.1-0.1,0.1
		c0,0-0.1,0-0.1,0h0h0c0,0,0,0,0,0c0,0,0,0-0.1,0c0,0,0,0,0,0l0,0c0,0,0,0,0,0c0,0,0,0,0,0c0,0,0,0,0,0c0,0,0,0,0,0v0v0v-2.7
		c0-0.8-0.7-1.5-1.5-1.5c-0.8,0-1.5,0.7-1.5,1.5v2.7c0,0.1,0,0.2-0.1,0.2c0,0,0,0-0.1,0c0,0,0,0,0,0h0h0c-0.1,0-0.2-0.1-0.2-0.2
		v-0.1v-2.7v-0.1v-1.7c0-0.1,0.1-0.2,0.2-0.2c0.1,0,0.2,0.1,0.2,0.2v0.5c0.4-0.4,0.9-0.7,1.5-0.7c0.8,0,1.4,0.4,1.7,1
		c0.4-0.6,1-1,1.8-1c1.1,0,2,0.9,2,2v2.7c0,0.1-0.1,0.2-0.2,0.2c-0.1,0-0.2-0.1-0.2-0.2V512.9z"/>
	<path style="&st1;" d="M270.4,511.1c0-0.1,0.1-0.2,0.2-0.2c0.1,0,0.2,0.1,0.2,0.2v2.7c0,0.8,0.7,1.5,1.5,1.5c0.8,0,1.5-0.7,1.5-1.5
		v-2.7c0,0,0-0.1,0-0.1c0,0,0,0,0,0c0,0,0,0,0,0c0,0,0.1,0,0.1-0.1h0c0,0,0,0,0,0h0h0c0,0,0.1,0,0.1,0c0,0,0,0.1,0.1,0.1
		c0,0,0,0.1,0,0.1v2.7v0.1v1.5c0,1.3-1,2.3-2.3,2.3c-0.4,0-0.7-0.1-1-0.2c-0.1-0.1-0.2-0.2-0.1-0.3c0.1-0.1,0.2-0.2,0.3-0.1
		c0.2,0.1,0.5,0.2,0.8,0.2c1,0,1.8-0.8,1.8-1.8v-0.3c-0.4,0.4-0.9,0.7-1.5,0.7c-1.1,0-2-0.9-2-2V511.1z"/>
	<path style="&st1;" d="M276.2,514.8c0.1-0.1,0.2-0.1,0.3,0c0.3,0.2,0.9,0.6,1.5,0.6c0.4,0,0.7-0.1,0.9-0.3c0.2-0.2,0.4-0.4,0.4-0.6
		c0-0.2-0.1-0.4-0.4-0.6c-0.2-0.2-0.6-0.3-1-0.4l0,0c-0.4-0.1-0.8-0.2-1.1-0.4c-0.3-0.2-0.5-0.5-0.5-0.9c0-0.4,0.2-0.7,0.5-1
		c0.3-0.2,0.7-0.3,1.2-0.3c0.6,0,1.1,0.3,1.5,0.5c0.1,0.1,0.1,0.2,0.1,0.3c-0.1,0.1-0.2,0.1-0.3,0.1c-0.4-0.2-0.7-0.5-1.2-0.5
		c-0.4,0-0.7,0.1-0.9,0.3c-0.2,0.2-0.3,0.4-0.3,0.6c0,0.2,0.1,0.3,0.3,0.5c0.2,0.1,0.5,0.3,1,0.3h0c0.5,0.1,0.8,0.2,1.2,0.4
		c0.3,0.2,0.5,0.6,0.5,1s-0.2,0.7-0.6,1c-0.3,0.2-0.7,0.4-1.2,0.4c-0.8,0-1.4-0.4-1.8-0.7C276.1,515,276.1,514.9,276.2,514.8z"/>
	<path style="&st1;" d="M281.1,513.3c0-1.4,1.1-2.5,2.4-2.5c1.3,0,2.3,1,2.4,2.3v0v0c0,0.1-0.1,0.2-0.2,0.2h-4
		c0,1.1,0.9,1.9,1.9,1.9c0.6,0,1.2-0.3,1.6-0.9c0.1-0.1,0.2-0.1,0.3-0.1c0.1,0.1,0.1,0.2,0.1,0.3c-0.4,0.7-1.1,1.1-2,1.1
		C282.1,515.8,281.1,514.7,281.1,513.3z M281.6,513h3.7c-0.2-0.9-0.9-1.6-1.8-1.6C282.5,511.4,281.8,512,281.6,513z"/>
	<path style="&st1;" d="M287.6,509c0-0.1,0.1-0.2,0.2-0.2c0.1,0,0.2,0.1,0.2,0.2v6.5c0,0.1-0.1,0.2-0.2,0.2c-0.1,0-0.2-0.1-0.2-0.2
		V509z"/>
	<path style="&st1;" d="M292.2,509c0,0.1-0.1,0.2-0.2,0.2c-0.3,0-0.5,0.1-0.6,0.2c-0.1,0.1-0.2,0.4-0.2,0.8v0.5h0.7
		c0.1,0,0.2,0.1,0.2,0.2c0,0.1-0.1,0.2-0.2,0.2h-0.7v4.3c0,0.1-0.1,0.2-0.2,0.2c-0.1,0-0.2-0.1-0.2-0.2v-4.3H290
		c-0.1,0-0.2-0.1-0.2-0.2c0-0.1,0.1-0.2,0.2-0.2h0.6v-0.5c0-0.5,0.1-0.9,0.3-1.1c0.2-0.3,0.6-0.3,1-0.3
		C292.1,508.8,292.2,508.9,292.2,509z"/>
</g>
<g>
	<path style="&st1;" d="M253,481.6c0-0.9-0.7-1.4-1.6-1.4c-0.8,0-1.5,0.6-1.5,1.4v2.7v0c0,0,0,0,0,0c0,0,0,0,0,0
		c0,0.1-0.1,0.1-0.1,0.1c0,0,0,0,0,0h0h0c-0.1,0-0.1,0-0.2-0.1c0,0,0,0,0-0.1c0,0,0,0,0-0.1v-2.7v-0.1v-3.7c0-0.1,0.1-0.2,0.2-0.2
		c0.1,0,0.2,0.1,0.2,0.2v2.6c0.4-0.4,0.9-0.7,1.5-0.7c1.1,0,2,0.8,2,1.9v2.7c0,0.1-0.1,0.2-0.2,0.2c-0.1,0-0.2-0.1-0.2-0.2V481.6z"
		/>
	<path style="&st1;" d="M257.7,479.7c1.3,0,2.3,1.1,2.3,2.4c0,1.3-1,2.4-2.3,2.4c-1.3,0-2.3-1.1-2.3-2.4
		C255.3,480.8,256.4,479.7,257.7,479.7z M257.7,484.1c1,0,1.8-0.9,1.8-2c0-1.1-0.8-2-1.8-2c-1,0-1.8,0.9-1.8,2
		C255.8,483.3,256.7,484.1,257.7,484.1z"/>
	<path style="&st1;" d="M261.9,477.9c0-0.1,0.1-0.2,0.2-0.2c0.1,0,0.2,0.1,0.2,0.2v6.5c0,0.1-0.1,0.2-0.2,0.2
		c-0.1,0-0.2-0.1-0.2-0.2V477.9z"/>
	<path style="&st1;" d="M264.4,482.2c0-1.4,1.1-2.5,2.4-2.5c1.3,0,2.3,1,2.4,2.3v0v0c0,0.1-0.1,0.2-0.2,0.2h-4
		c0,1.1,0.9,1.9,1.9,1.9c0.6,0,1.2-0.3,1.6-0.9c0.1-0.1,0.2-0.1,0.3-0.1c0.1,0.1,0.1,0.2,0.1,0.3c-0.4,0.7-1.1,1.1-2,1.1
		C265.5,484.6,264.4,483.5,264.4,482.2z M264.9,481.8h3.7c-0.2-0.9-0.9-1.6-1.8-1.6C265.9,480.2,265.1,480.9,264.9,481.8z"/>
	<path style="&st1;" d="M278,480v4.4c0,0.1-0.1,0.2-0.2,0.2s-0.2-0.1-0.2-0.2v-0.7c-0.4,0.6-1.1,1-1.8,1c-1.3,0-2.3-1.1-2.3-2.4
		c0-1.3,1-2.4,2.3-2.4c0.7,0,1.4,0.4,1.8,1V480c0-0.1,0.1-0.2,0.2-0.2S278,479.8,278,480z M277.5,482.2c0-1.1-0.8-2-1.8-2
		c-1,0-1.8,0.9-1.8,2c0,1.1,0.8,2,1.8,2C276.7,484.1,277.5,483.3,277.5,482.2z"/>
	<path style="&st1;" d="M283.4,481.7c0-0.8-0.7-1.5-1.5-1.5c-0.8,0-1.5,0.7-1.5,1.5v2.7v0c0,0,0,0.1-0.1,0.1c0,0.1-0.1,0.1-0.2,0.1
		h-0.1c-0.1,0-0.1-0.1-0.2-0.1c0,0,0,0,0,0s0,0,0,0v-0.1v-2.7v-0.1V480c0-0.1,0.1-0.2,0.2-0.2c0.1,0,0.2,0.1,0.2,0.2v0.5
		c0.4-0.4,0.9-0.7,1.5-0.7c1.1,0,2,0.9,2,2v2.7c0,0.1-0.1,0.2-0.2,0.2s-0.2-0.1-0.2-0.2V481.7z"/>
	<path style="&st1;" d="M289.8,483.7c-0.4,0.6-1.1,1-1.9,1c-1.3,0-2.4-1.1-2.4-2.4c0-1.4,1-2.5,2.4-2.5c0.8,0,1.4,0.4,1.9,1v-2.8
		c0-0.1,0.1-0.2,0.2-0.2c0.1,0,0.2,0.1,0.2,0.2v4.2v0.1v2.2c0,0.1-0.1,0.2-0.2,0.2c-0.1,0-0.2-0.1-0.2-0.2V483.7z M289.8,482.3v-0.2
		c0-1-0.9-1.9-1.9-1.9c-1,0-1.9,0.9-1.9,2c0,1.1,0.8,1.9,1.9,1.9C288.9,484.1,289.8,483.3,289.8,482.3z"/>
</g>
<g>
	<path style="&st0;" d="M236,551.4c0,0.3-0.3,0.6-0.6,0.6c-0.3,0-0.5,0.1-0.7,0.2c-0.2,0.1-0.4,0.3-0.5,0.5
		c-0.3,0.4-0.4,0.8-0.5,0.9v2.1c0,0.3-0.3,0.6-0.6,0.6c-0.3,0-0.6-0.3-0.6-0.6v-4.3c0-0.3,0.3-0.6,0.6-0.6c0.3,0,0.6,0.3,0.6,0.6
		v0.1c0.1-0.1,0.2-0.2,0.2-0.2c0.4-0.2,0.8-0.4,1.4-0.4C235.7,550.8,236,551,236,551.4z"/>
	<path style="&st0;" d="M237.7,555.5c-0.5-0.5-0.8-1.2-0.8-1.9c0-0.7,0.3-1.4,0.8-1.9c0.5-0.5,1.1-0.8,1.9-0.8
		c0.7,0,1.4,0.3,1.8,0.8c0.5,0.5,0.8,1.2,0.8,1.9c0,0.8-0.3,1.5-0.8,1.9c-0.5,0.5-1.1,0.8-1.8,0.8
		C238.8,556.3,238.2,556,237.7,555.5z M238.1,553.5c0,0.5,0.1,0.9,0.4,1.2c0.3,0.3,0.6,0.4,1.1,0.4c0.4,0,0.7-0.1,1-0.4
		c0.3-0.3,0.4-0.7,0.4-1.2c0-0.5-0.2-0.8-0.4-1.1c-0.3-0.2-0.6-0.4-1-0.4c-0.4,0-0.8,0.2-1.1,0.4
		C238.3,552.7,238.1,553.1,238.1,553.5z"/>
	<path style="&st0;" d="M248.7,551.4v2.6v1.6c0,1.5-1.2,2.6-2.6,2.6c-0.4,0-0.8-0.1-1.1-0.3c-0.3-0.1-0.4-0.5-0.3-0.8
		c0.1-0.3,0.5-0.4,0.8-0.2c0.2,0.1,0.4,0.2,0.6,0.2c0.6,0,1.2-0.4,1.4-1c-0.3,0.2-0.7,0.3-1,0.3c-1.3,0-2.3-1-2.3-2.3v-2.6
		c0-0.3,0.3-0.6,0.6-0.6c0.3,0,0.6,0.3,0.6,0.6v2.6c0,0.6,0.5,1.1,1.1,1.1c0.6,0,1.1-0.5,1.1-1.1v-2.6c0-0.3,0.2-0.6,0.6-0.6
		C248.4,550.8,248.7,551,248.7,551.4z"/>
	<path style="&st0;" d="M255.4,553.5v2.2c0,0.3-0.3,0.6-0.6,0.6c-0.3,0-0.5-0.2-0.6-0.5c-0.4,0.3-0.9,0.5-1.5,0.5
		c-0.7,0-1.4-0.3-1.9-0.8c-0.5-0.5-0.7-1.2-0.7-1.9c0-0.8,0.3-1.4,0.7-1.9c0.5-0.5,1.1-0.8,1.9-0.8c0.5,0,1,0.2,1.5,0.5
		c0.1-0.3,0.3-0.5,0.6-0.5c0.3,0,0.6,0.3,0.6,0.6V553.5z M254.2,553.5c0-0.5-0.2-0.9-0.4-1.1c-0.3-0.3-0.6-0.5-1-0.5
		c-0.4,0-0.8,0.2-1,0.5c-0.3,0.3-0.4,0.7-0.4,1.1c0,0.5,0.2,0.8,0.4,1.1c0.3,0.3,0.6,0.4,1,0.4c0.4,0,0.8-0.2,1-0.4
		C254.1,554.4,254.2,554,254.2,553.5z"/>
	<path style="&st0;" d="M258.4,548.6c0.3,0,0.6,0.3,0.6,0.6v6.5c0,0.3-0.3,0.6-0.6,0.6c-0.3,0-0.6-0.3-0.6-0.6v-6.5
		C257.8,548.8,258,548.6,258.4,548.6z"/>
	<path style="&st0;" d="M261.1,554.7c0.5,0,0.8,0.4,0.8,0.8s-0.4,0.8-0.8,0.8s-0.8-0.4-0.8-0.8S260.7,554.7,261.1,554.7z"/>
</g>
<g>
	<path style="&st2;" d="M260.2,671.2h-0.1c-0.3,0-0.6-0.3-0.6-0.6v-17c0-0.3,0.3-0.6,0.6-0.6h0.1h3.3c5,0,9.1,4.1,9.1,9.1
		c0,5-4.1,9.1-9.1,9.1H260.2z M263.5,669.9c4.3,0,7.8-3.5,7.8-7.8c0-4.3-3.5-7.8-7.8-7.9h-2.8v15.7H263.5z"/>
	<path style="&st2;" d="M276.9,653.6c0-0.3,0.3-0.6,0.6-0.6h0.1h9.3c0.4,0,0.6,0.3,0.6,0.6c0,0.4-0.3,0.6-0.6,0.6h-8.7v7.2h7.6
		c0.3,0,0.6,0.3,0.6,0.7c0,0.3-0.3,0.6-0.6,0.6h-7.6v7.2h8.7c0.4,0,0.6,0.3,0.6,0.6c0,0.3-0.3,0.6-0.6,0.6h-9.3h-0.1h-0.1
		c-0.3,0-0.6-0.3-0.6-0.6V653.6z"/>
	<path style="&st3;" d="M293.6,655.6v14.9c0,0.3-0.3,0.6-0.6,0.6s-0.6-0.3-0.6-0.6v-16.7c-0.1-0.3,0-0.5,0.2-0.7
		c0.3-0.2,0.7-0.1,0.9,0.2l11,15.3v-14.8c0-0.3,0.3-0.6,0.6-0.6c0.4,0,0.6,0.3,0.6,0.6v16.8c0,0.3-0.3,0.6-0.6,0.6
		c-0.2,0-0.4-0.1-0.5-0.2c0,0-0.1-0.1-0.1-0.1L293.6,655.6z"/>
	<path style="&st3;" d="M316.8,654.2h-5.5c-0.3,0-0.6-0.3-0.6-0.6c0-0.3,0.3-0.6,0.6-0.6h12.2c0.3,0,0.6,0.3,0.6,0.6
		c0,0.4-0.3,0.6-0.6,0.6h-5.5v16.3c0,0.3-0.3,0.6-0.6,0.6c-0.3,0-0.6-0.3-0.6-0.6V654.2z"/>
	<path style="&st2;" d="M336.4,666.4h-8.3l-1.6,4.3c-0.1,0.3-0.3,0.4-0.6,0.4c-0.1,0-0.2,0-0.2,0c-0.3-0.1-0.5-0.5-0.4-0.8l6.3-16.9
		c0.1-0.2,0.4-0.4,0.6-0.4c0.3,0,0.5,0.2,0.6,0.4l6.3,16.9c0.1,0.3,0,0.7-0.3,0.8c-0.1,0-0.2,0-0.2,0c-0.2,0-0.5-0.2-0.6-0.4
		L336.4,666.4z M328.6,665.2h7.4l-3.7-9.8L328.6,665.2z"/>
	<path style="&st2;" d="M343.9,671.2L343.9,671.2c-0.4,0-0.7-0.3-0.7-0.6v-17c0-0.3,0.3-0.6,0.6-0.6c0.4,0,0.6,0.3,0.6,0.6v16.3h8.7
		c0.4,0,0.6,0.3,0.6,0.6c0,0.3-0.3,0.6-0.6,0.6H343.9z"/>
</g>
<g>
	<path style="&st2;" d="M260.2,125.3h-0.1c-0.3,0-0.6-0.3-0.6-0.6v-17c0-0.3,0.3-0.6,0.6-0.6h0.1h3.3c5,0,9.1,4.1,9.1,9.1
		c0,5-4.1,9.1-9.1,9.1H260.2z M263.5,124.1c4.3,0,7.8-3.5,7.8-7.8c0-4.3-3.5-7.8-7.8-7.9h-2.8v15.7H263.5z"/>
	<path style="&st2;" d="M276.9,107.8c0-0.3,0.3-0.6,0.6-0.6h0.1h9.3c0.4,0,0.6,0.3,0.6,0.6c0,0.4-0.3,0.7-0.6,0.7h-8.7v7.2h7.6
		c0.3,0,0.6,0.3,0.6,0.7c0,0.3-0.3,0.6-0.6,0.6h-7.6v7.2h8.7c0.4,0,0.6,0.3,0.6,0.7c0,0.3-0.3,0.6-0.6,0.6h-9.3h-0.1h-0.1
		c-0.3,0-0.6-0.3-0.6-0.6V107.8z"/>
	<path style="&st2;" d="M293.6,109.8v14.9c0,0.3-0.3,0.6-0.6,0.6s-0.6-0.3-0.6-0.6V108c-0.1-0.3,0-0.5,0.2-0.7
		c0.3-0.2,0.7-0.1,0.9,0.2l11,15.3v-14.8c0-0.3,0.3-0.6,0.6-0.6c0.4,0,0.6,0.3,0.6,0.6v16.8c0,0.3-0.3,0.6-0.6,0.6
		c-0.2,0-0.4-0.1-0.5-0.2c0,0-0.1-0.1-0.1-0.1L293.6,109.8z"/>
	<path style="&st2;" d="M316.8,108.4h-5.5c-0.3,0-0.6-0.3-0.6-0.7c0-0.3,0.3-0.6,0.6-0.6h12.2c0.3,0,0.6,0.3,0.6,0.6
		c0,0.4-0.3,0.7-0.6,0.7h-5.5v16.3c0,0.3-0.3,0.6-0.6,0.6c-0.3,0-0.6-0.3-0.6-0.6V108.4z"/>
	<path style="&st3;" d="M336.4,120.6h-8.3l-1.6,4.3c-0.1,0.3-0.3,0.4-0.6,0.4c-0.1,0-0.2,0-0.2,0c-0.3-0.1-0.5-0.5-0.4-0.8l6.3-16.9
		c0.1-0.2,0.4-0.4,0.6-0.4c0.3,0,0.5,0.2,0.6,0.4l6.3,16.9c0.1,0.3,0,0.7-0.3,0.8c-0.1,0-0.2,0-0.2,0c-0.2,0-0.5-0.2-0.6-0.4
		L336.4,120.6z M328.6,119.4h7.4l-3.7-9.8L328.6,119.4z"/>
	<path style="&st3;" d="M343.9,125.3L343.9,125.3c-0.4,0-0.7-0.3-0.7-0.6v-17c0-0.3,0.3-0.6,0.6-0.6c0.4,0,0.6,0.3,0.6,0.6v16.3h8.7
		c0.4,0,0.6,0.3,0.6,0.7c0,0.3-0.3,0.6-0.6,0.6H343.9z"/>
</g>
</svg>
