<svg width="894" height="664" viewBox="0 0 894 664" fill="none" xmlns="http://www.w3.org/2000/svg">
<rect width="894" height="664" fill="#E5E5E5"/>
<rect x="0.24118" y="0.798645" width="893.706" height="662.3" fill="white"/>
<path d="M202.478 210.078C263.035 267.509 189.139 289.457 283.758 280.642C378.378 271.827 435.35 226.468 366.068 195.493C296.785 164.518 227.989 162.984 213.06 180.307C201.118 194.166 201.03 205.929 202.478 210.078Z" fill="#E8FFF2"/>
<path d="M623.035 478.526C574.737 532.881 576.576 555.243 650.135 576.642C723.694 598.04 749.023 571.088 757.454 565.363C765.886 559.638 677.24 454.038 623.035 478.526Z" fill="#E8FFF2"/>
<path d="M578.245 119.718C554.054 169.509 542.144 209.42 585.655 215.292C629.166 221.163 703.817 204.863 661.98 174.243C620.143 143.623 619.361 93.3381 578.245 119.718Z" fill="#E8FFF2"/>
<path d="M193.851 542.099C163.171 523.078 120.219 471.413 193.851 416.925C256.438 438.094 214.1 462.025 260.119 534.736C296.935 592.905 231.28 563.882 193.851 542.099Z" fill="#ECFCFF"/>
<path d="M537.159 416.911C525.501 409.547 508.259 389.483 532.557 368.129C579.497 343.279 554.647 368.129 609.87 392.98C654.05 412.861 579.804 417.217 537.159 416.911Z" fill="#ECFCFF"/>
<path d="M708.353 84.6619L728.602 117.796C746.703 119.637 779.408 113.931 765.418 76.3783C751.428 38.8261 721.545 66.2539 708.353 84.6619Z" fill="#ECFCFF"/>
<path d="M83.4032 126.08C69.2905 135.591 54.5027 153.508 108.254 149.09C162.005 144.672 114.083 131.909 83.4032 126.08Z" fill="#ECFCFF"/>
</svg>
