<svg width="766" height="556" viewBox="0 0 766 556" fill="none" xmlns="http://www.w3.org/2000/svg">
<path d="M132.478 168.078C193.035 225.509 119.139 247.457 213.758 238.642C308.378 229.827 365.35 184.468 296.068 153.493C226.785 122.518 157.989 120.984 143.06 138.307C131.118 152.166 131.03 163.929 132.478 168.078Z" fill="#E8FFF2"/>
<path d="M553.035 436.526C504.737 490.881 506.576 513.243 580.135 534.642C653.694 556.04 679.023 529.088 687.454 523.363C695.886 517.638 607.24 412.038 553.035 436.526Z" fill="#E8FFF2"/>
<path d="M508.245 77.7176C484.054 127.509 472.144 167.42 515.655 173.292C559.166 179.163 633.817 162.863 591.98 132.243C550.143 101.623 549.361 51.3381 508.245 77.7176Z" fill="#E8FFF2"/>
<path d="M123.851 500.099C93.171 481.078 50.2191 429.413 123.851 374.925C186.438 396.094 144.1 420.025 190.119 492.736C226.935 550.905 161.28 521.882 123.851 500.099Z" fill="#ECFCFF"/>
<path d="M467.159 374.911C455.501 367.547 438.259 347.483 462.557 326.129C509.497 301.279 484.647 326.129 539.87 350.98C584.05 370.861 509.804 375.217 467.159 374.911Z" fill="#ECFCFF"/>
<path d="M638.353 42.6619L658.602 75.7962C676.703 77.637 709.408 71.9305 695.418 34.3783C681.428 -3.17391 651.545 24.2539 638.353 42.6619Z" fill="#ECFCFF"/>
<path d="M13.4032 84.0797C-0.709544 93.5905 -15.4973 111.508 38.2539 107.09C92.0051 102.672 44.0831 89.9089 13.4032 84.0797Z" fill="#ECFCFF"/>
</svg>
